<svg xmlns="http://www.w3.org/2000/svg" version="1.1" viewBox="0 0 1600 1600" width="1280" height="1280">
<path transform="translate(934,178)" d="m0 0c1.06-0.018 2.12-0.0361 3.21-0.0547 4.03 0.0582 7.79 0.641 11.7 1.43 0.665 0.126 1.33 0.253 2.01 0.383 3.36 0.651 6.67 1.39 9.97 2.25 4.4 1.12 8.83 1.78 13.3 2.43 6.38 0.965 12.6 2.13 18.8 3.8 6.42 1.67 12.9 3.03 19.5 4.23 2.44 0.527 2.44 0.527 5.17 1.42 8.06 2.55 12.8 1.68 20.3-1.89 20.5-8.75 44.8-5.9 65 2.13 5.23 2.23 10.1 5.01 15 7.87 1.44 0.813 2.87 1.63 4.31 2.44 0.887 0.516 1.77 1.03 2.69 1.56v2c0.7 0.214 1.4 0.428 2.12 0.648 3.64 1.71 6.16 4.15 8.94 6.98 0.516 0.496 1.03 0.993 1.56 1.5 5.75 5.76 8.54 10.9 8.8 19.1-0.0171 2.29-0.0554 4.58-0.113 6.87-0.0145 1.73-0.0145 1.73-0.0293 3.5-0.114 8.58-0.114 8.58-0.931 12.4-0.417 3.49 0.177 4.94 1.78 8.03 0.474 0.942 0.949 1.88 1.44 2.85 0.77 1.48 0.77 1.48 1.55 2.99 7.15 14.3 13.1 29.2 14.2 45.3 1.06 14.5 6.39 25.1 13.5 37.6 2.42 4.55 4.26 9.35 6.14 14.1 0.486 1.22 0.972 2.44 1.47 3.69 5 12.8 9.21 25.9 11.1 39.5 0.485 2.94 1.21 5.79 1.95 8.68 6.03 24.9 6.81 51.2 7.26 76.8 0.124 7.06 0.337 14.1 0.712 21.2 0.0378 0.746 0.0757 1.49 0.115 2.26 0.162 2.84 0.359 5.59 0.931 8.37 0.726 3.73 0.784 7.45 0.923 11.2 0.0737 1.72 0.148 3.44 0.223 5.16 0.113 2.69 0.222 5.38 0.322 8.07 0.0984 2.61 0.213 5.22 0.331 7.83 0.0251 0.791 0.0503 1.58 0.0761 2.4 0.404 8.43 2.78 15.3 7.74 22.2 0.393 0.548 0.785 1.1 1.19 1.66 3.39 4.71 6.91 9.34 10.4 14 14.3 19.2 14.3 19.2 14.3 23.1 0.99 0.33 1.98 0.66 3 1 1.52 2.12 2.9 4.21 4.25 6.44 0.803 1.29 1.61 2.57 2.41 3.86 0.396 0.634 0.792 1.27 1.2 1.92 1.51 2.38 3.12 4.68 4.76 6.97 3.04 4.27 5.84 8.67 8.63 13.1 1.65 2.56 3.36 5.04 5.12 7.52 4.42 6.26 8.52 12.7 12.6 19.2 0.487 0.767 0.975 1.53 1.48 2.32 3.09 4.87 6.18 9.75 9.24 14.6 1.03 1.64 2.06 3.28 3.1 4.91 3.08 4.97 5.79 10.1 8.43 15.3 0.342 0.666 0.684 1.33 1.04 2.02 5.37 10.8 5.87 21.4 5.81 33.2-0.00141 1.05-0.00283 2.11-0.00429 3.19-0.00556 3.33-0.0181 6.66-0.0309 9.99-0.00502 2.27-0.00958 4.54-0.0137 6.81-0.011 5.54-0.0277 11.1-0.0488 16.6-6.23 3.21-12.2 5.08-19.3 3.49-1.45-0.508-2.89-1.04-4.32-1.6-7.38-2.72-15.2-3.93-23-4.89-9.27-1.16-17.8-3.01-26.2-7.03-2.37-1.04-4.72-1.76-7.21-2.47-4.05-1.16-7.78-2.63-11.6-4.41-2.73-1.24-5.5-2.35-8.28-3.47-4.97-2.05-9.6-4.46-14.3-7.09-5.15-2.79-10.5-5.15-15.8-7.54-1.05-0.491-2.1-0.982-3.18-1.49-7.26-3.28-13.1-5.18-20.8-2.45-3.54 2.29-6.79 4.84-10 7.51-1.95 1.43-1.95 1.43-3.95 1.43-0.33 0.99-0.66 1.98-1 3-1.6 1.54-1.6 1.54-3.62 3.19-3.67 3.09-6.72 6.39-9.73 10.1-1.64 1.7-1.64 1.7-3.78 2.74-2.22 0.868-2.22 0.868-2.86 3.96-1.57 1.29-1.57 1.29-3.56 2.62-8.35 6.08-15.5 14.3-18 24.5-0.276 1.93-0.381 3.89-0.477 5.84-0.124 1.16-0.247 2.31-0.375 3.5 0.803 7.5 5.6 12 11.2 16.6 3.97 3.37 7.53 7.15 11.2 10.9 1.39 1.36 1.39 1.36 2.81 2.75 6.19 6.36 6.19 6.36 6.19 9.25 0.99 0.33 1.98 0.66 3 1 1.58 1.71 1.58 1.71 3.25 3.94 0.614 0.815 1.23 1.63 1.86 2.47 2.43 3.33 4.81 6.69 7.14 10.1 1.13 1.62 2.28 3.22 3.46 4.8 5.02 6.8 8.68 14.1 12.3 21.7 0.942 1.97 1.9 3.93 2.87 5.89 6.18 12.7 13.1 27.9 13.1 42.2 2.38-0.115 4.75-0.242 7.12-0.375 0.665-0.0309 1.33-0.0619 2.02-0.0938 4.28-0.252 7.85-1.07 11.9-2.53 1.18-0.165 2.35-0.33 3.56-0.5 3.33-0.331 3.33-0.331 5.78-1.52 3.04-1.13 5.42-1.25 8.66-1.23 1.01-0.00516 2.02-0.0103 3.06-0.0156 3.01 0.272 5.21 1 7.94 2.27v2c0.749 0.241 1.5 0.482 2.27 0.73 3.12 1.45 4.37 2.85 6.42 5.58 0.581 0.759 1.16 1.52 1.76 2.3 4.54 6.99 4.34 14.3 3.55 22.4-1.82 6.48-5.16 11.1-10.7 14.8-3.9 2.04-8 3.19-12.3 4.18 1.83 3.13 3.76 6.19 5.74 9.22 5.62 8.65 10.9 17 14.3 26.8 0.359 1 0.359 1 0.725 2.03 2.78 7.76 5.29 15.4 6.9 23.5 2.75 13.7 10 25.1 21.4 33.4 13.7 9.02 28.7 13.7 44.3 18.6 12.9 4.01 25.7 8.25 35.7 17.7 0.514 0.479 1.03 0.959 1.56 1.45 8.2 7.74 8.2 7.74 11.4 12.3v2c0.99 0.33 1.98 0.66 3 1 0.685 1.32 1.35 2.66 2 4 0.578 0.577 1.16 1.16 1.75 1.75 3.12 3.12 5.85 6.55 8.25 10.2v2c0.99 0.33 1.98 0.66 3 1 0.98 1.4 1.95 2.82 2.86 4.27 2.03 3.1 4.47 5.88 6.83 8.73 5.69 7.02 10.6 14.3 15.3 22 0.626 0.96 1.25 1.92 1.9 2.91 9.68 15.4 13.4 31.5 10.6 49.4-0.643 2.68-1.44 5.13-2.48 7.68-0.294 0.739-0.588 1.48-0.891 2.24-4.7 9.86-14.5 18.8-24.1 23.8-0.908 0.495-1.82 0.99-2.75 1.5-29.5 13.6-61.1 17.8-93.3 17.5-2.16 0.00897-2.16 0.00897-5.23 0.611-2.69 0.438-2.69 0.438-4.56-0.0356-2.37-0.588-4.37-0.592-6.81-0.519-12.7 0.26-24.6-0.612-37.1-2.67-3.66-0.564-7.34-0.868-11-1.13-2.43-0.238-4.76-0.697-7.16-1.21-0.73-0.153-1.46-0.307-2.21-0.465-4.65-1.02-9.21-2.22-13.8-3.54-1.77-0.442-3.54-0.879-5.31-1.31-5.38-1.33-10.7-2.77-16.1-4.25-0.761-0.21-1.52-0.42-2.31-0.636-3.21-0.895-6.39-1.82-9.55-2.89-8.5-2.81-17.6-3.72-26.5-4.63-2.31-0.281-2.31-0.281-4.88-0.801-13.7-1.92-28.3-0.912-42 1.15-2.99 0.45-5.99 0.869-8.98 1.29-2.33 0.338-4.66 0.678-6.99 1.02-1.1 0.158-2.2 0.315-3.33 0.478-5.6 0.852-10.8 1.96-16.1 3.87-3.12 1.09-6.31 1.82-9.53 2.59-5.87 1.43-11.7 2.99-17.5 4.69-0.681 0.198-1.36 0.395-2.06 0.599-4.73 1.4-9.33 3.07-13.9 4.84-1.87 0.697-3.74 1.39-5.61 2.09-14.1 5.21-14.1 5.21-28 10.9-2.37 1.01-4.77 1.93-7.18 2.84-5.06 2.01-9.89 4.45-14.7 6.92-4.46 2.26-8.96 4.43-13.5 6.54-8.88 4.12-17.5 8.63-26 13.5-3.29 1.87-6.64 3.57-10 5.25-3.56 1.8-7.04 3.75-10.5 5.7-1.16 0.649-1.16 0.649-2.35 1.31-1.6 0.894-3.2 1.79-4.8 2.68-2.24 1.25-4.48 2.51-6.73 3.76-1.38 0.769-2.75 1.54-4.12 2.31-0.609 0.34-1.22 0.68-1.85 1.03-8.89 4.99-17.6 10.4-26.2 15.7-1.32 0.814-1.32 0.814-2.67 1.64-5.01 3.1-9.94 6.28-14.8 9.56-2.23 1.48-4.5 2.87-6.82 4.23-4.51 2.68-8.94 5.46-13.4 8.29-1.78 1.14-3.56 2.26-5.34 3.38-10.1 6.35-19.9 13.2-29.7 20.1-3.46 2.44-6.97 4.79-10.5 7.12-4.52 3-8.97 6.09-13.4 9.25-0.592 0.425-1.18 0.85-1.79 1.29-1.69 1.22-3.39 2.43-5.08 3.65-6.5 4.67-13.1 8.96-20 13-1.27 0.76-2.54 1.52-3.81 2.28-12.7 7.55-25.5 15.2-39.2 20.7-1.17 0.482-2.35 0.964-3.55 1.46-11.9 4.85-23.9 8.67-36.3 12-1.82 0.485-3.64 0.987-5.45 1.49-18.1 4.51-47.8 9.05-65.7 3.08-1.39-0.153-2.79-0.274-4.19-0.375-4.69-0.441-9.31-1.16-13.9-2-0.985-0.171-0.985-0.171-1.99-0.345-4.16-0.778-7.96-1.96-11.9-3.51-1.92-0.743-3.86-1.39-5.82-2.02-18.8-6.12-40-15.5-51.3-32.5-3.75-10.1-0.481-22.7 3.16-32.3 0.563-1.55 1.12-3.09 1.68-4.64 1.48-4.08 2.99-8.15 4.52-12.2 1.04-2.79 2.04-5.59 3.05-8.4 1.92-5.28 4.03-10.4 6.62-15.4 1.75-3.44 3.14-6.95 4.5-10.6 2.15-5.7 4.57-11.2 7.16-16.7 1.31-2.79 2.58-5.6 3.84-8.42 3.05-6.73 6.39-13.3 9.72-19.9 0.821-1.63 1.62-3.28 2.41-4.92 3.76-7.26 8.73-13.9 13.6-20.4 2.65-3.59 4.88-7.17 6.94-11.1 4.88-9.23 11.6-14.9 20-20.7 4.24-3.04 7.63-6.23 11-10.2 2.9-3.41 5.95-6.68 8.99-9.96 2.21-2.39 4.26-4.75 6.18-7.38 3.52-4.25 8.43-6.44 13.3-8.94 1.48-0.785 1.48-0.785 2.98-1.59 6.45-3.42 13-6.69 19.5-9.91 3.06-1.56 6-3.25 8.95-5.01 4.76-2.83 9.61-5.4 14.6-7.88 0.675-0.338 1.35-0.675 2.04-1.02 3.45-1.71 6.91-3.3 10.5-4.66l-0.0352-3.3c-0.0397-5.51-0.0133-11 0.0227-16.5 0.0139-2.42 0.0217-4.85 0.03-7.27 0.02-4.75 0.0706-9.5 0.136-14.2 0.0225-1.92 0.0365-3.85 0.0417-5.77 0.0721-21.3 0.0721-21.3 5.8-27.9 3.19-2.22 6.36-3.66 10-5 0.94-0.356 1.88-0.712 2.85-1.08 1.8-0.663 3.6-1.31 5.41-1.93 2.05-0.745 4.08-1.57 6.09-2.43 3.09-1.33 6.19-2.54 9.34-3.7 2.07-0.763 4.14-1.55 6.2-2.33 2.56-0.966 5.1-1.86 7.7-2.71 5.63-1.82 5.63-1.82 9.73-5.81 0.825-2.34 1.28-4.55 1.67-7 0.391-1.69 0.787-3.38 1.19-5.06 0.276-1.31 0.548-2.62 0.812-3.94-0.714-0.245-1.43-0.49-2.16-0.742-8.43-3.74-15.1-11.2-20.8-18.3-1.02-1.22-2.05-2.45-3.07-3.67-16.9-20.4-16.9-20.4-16.9-25.3-1.42-0.0272-2.83-0.0465-4.25-0.0625-0.789-0.0116-1.58-0.0232-2.39-0.0352-2.28 0.00542-2.28 0.00542-4.12 0.584-2.83 0.65-5.53 0.733-8.44 0.83-1.21 0.0419-2.42 0.0838-3.67 0.127-1.26 0.0393-2.52 0.0786-3.82 0.119-1.86 0.0648-1.86 0.0648-3.76 0.131-5.28 0.176-10.5 0.33-15.8 0.271-3.55-0.239-3.55-0.239-5.73 1.04-2.48 0.0988-4.94 0.14-7.42 0.133-0.738 9.57e-4 -1.48 0.00191-2.24 0.0029-1.56 6.81e-4 -3.13-0.00117-4.69-0.00534-2.38-0.00532-4.76-6.86e-5 -7.14 0.00635-1.52-6.61e-4 -3.04-0.00194-4.56-0.00391-0.706 0.00202-1.41 0.00405-2.14 0.00613-4.05-0.0189-7.84-0.368-11.8-1.14-1.26-0.214-2.51-0.428-3.8-0.648-6.99-1.23-13.7-2.5-20.2-5.35-1.11-0.433-2.23-0.866-3.38-1.31-9.03-4.2-14.8-7.85-19.6-16.7-0.328-0.576-0.656-1.15-0.995-1.75-6.09-10.7-10.8-21.7-15.2-33.2-0.79-2.06-0.79-2.06-1.91-4.04-2.38-5.17-0.696-12.1 0.0901-17.5 0.928-7.17 1.25-14.3 1.31-21.5 0.0261-1.44 0.0261-1.44 0.0527-2.92-0.00368-5.28-0.585-9.35-2.64-14.2-2.17-5.46-1.9-11.7-2.22-17.5-0.704-11.8-2.57-21.6-7.51-32.3-0.33-0.99-0.66-1.98-1-3-6.72-3.56-14.7-3.71-22-2-11.3 4.73-21.4 12.4-29 22-0.634 0.737-1.27 1.47-1.92 2.23-5.08 6.02-8.95 12.5-12.7 19.4-2.62 4.7-5.29 9.37-7.97 14-0.978 1.71-1.95 3.42-2.92 5.13-3.48 6.08-7.15 11.7-11.5 17.2-6.14 8.8-11.4 18.3-14.4 28.6-2.17 7.02-7.35 12.8-12.1 18.2-2.8 3.34-4.77 6.97-6.76 10.8-0.381 0.729-0.761 1.46-1.15 2.21-3.3 6.39-6.4 12.9-9.41 19.4-3.77 8.13-8.09 15.8-13.1 23.3-0.432 0.65-0.864 1.3-1.31 1.97-2.78 4.09-5.68 7.7-9.35 11-1.71 1.53-1.71 1.53-3.78 4.3-0.557 0.681-1.11 1.36-1.69 2.06h-2c-0.402 0.959-0.402 0.959-0.812 1.94-1.19 2.06-1.19 2.06-4.19 3.06-0.33 0.66-0.66 1.32-1 2-0.33 0.66-0.66 1.32-1 2-0.99 0.33-1.98 0.66-3 1-0.33 0.99-0.66 1.98-1 3-11 10.5-24.6 16.9-40 17-0.818 0.0122-1.64 0.0245-2.48 0.0371-4.71 0.0691-9.41 0.109-14.1 0.0957-0.799-0.00113-1.6-0.00226-2.42-0.00342-1.98-0.129-1.98-0.129-3.98-1.13-1.7 0.155-1.7 0.155-3.44 0.312-8.68 0.0313-15.4-5.86-21.3-11.6-4.44-4.66-8.45-9.5-12.2-14.7-0.534-0.69-1.07-1.38-1.62-2.09-8.51-11-16-25.3-19.4-38.9-0.264-1-0.529-2.01-0.801-3.04-2.89-12.8-2.92-25.8-3.13-38.8-0.045-2.83-0.108-5.66-0.187-8.49-0.0994-3.61-0.171-7.22-0.224-10.8-0.0237-1.37-0.0555-2.75-0.0961-4.12-0.272-9.67 0.564-17.5 7.41-24.8 11.2-10.4 24.2-13.5 39.2-13.4 1.32-0.00146 2.63-0.00291 3.99-0.00441 2.76-0.00137 5.52 0.011 8.29 0.034 3.52 0.0285 7.03 0.0256 10.5 0.0129 3.39-0.00867 6.78 0.0065 10.2 0.02 1.25-0.00294 2.5-0.00587 3.79-0.0089 16.5 0.177 27.6 7.02 39.4 18.2 5.23 4.53 9.54 4.95 16.4 4.79 4.44-0.758 5.97-2.25 8.54-5.85l1.65-2.69 1.96-3.1c1.95-3.15 3.82-6.34 5.67-9.54 2.13-3.68 4.28-7.36 6.44-11 1.14-1.94 2.28-3.89 3.41-5.84 2.6-4.44 5.22-8.54 8.52-12.5 0.967-1.57 1.9-3.15 2.81-4.75 8.92-15 21.6-23.8 35.9-33.4 5.55-3.74 11-7.43 15.9-12 6.76-6.21 14.3-10.8 22.9-14 1.97-0.732 3.91-1.57 5.82-2.44 3.7-1.49 7.05-2.25 11-2.92 10.5-1.65 10.5-1.65 19.2-7.16 2.41-3.79 3.27-7.03 2.5-11.4-1.74-5.04-3.65-9.78-8.5-12.4-3.6-1.47-7.33-2.24-11.1-3.06-8.73-1.9-14.3-6.16-19.4-13.5-6.03-13.6-1.69-31.4 3.36-44.5 1.46-3.53 3.02-7 4.64-10.5l1.66-3.6c4.24-8.87 9.42-16.4 15.5-24.1 6.67-8.9 10.5-18.5 14.6-28.8 2.29-5.71 4.58-11.3 9.26-15.5 1.46-1.68 2.88-3.38 4.3-5.09 2.13-2.41 4.41-4.65 6.7-6.91l2.5-2.5c7.5-7.5 7.5-7.5 10.1-10.1 10.5-10.4 10.5-10.4 14.6-24-0.239-3.96-1.32-5.64-4.14-8.4-7.51-5.09-16.7-4.61-25.4-4.82-2.61-0.0699-4.96-0.236-7.54-0.672-4.61-0.757-9.22-0.752-13.9-0.879-10.3-0.337-20.5-1.13-30.7-2.12-11.2-1.09-22.4-1.9-33.7-2.21-6.01-0.17-11.7-0.648-17.6-1.85-2.93-0.395-5.61-0.466-8.56-0.438-4.13 0.0389-8.08-0.197-12.2-0.711-7.3-0.842-14.7-1.37-22-1.29-3.64 0.0354-6.93-0.255-10.5-1-0.772-0.134-1.54-0.268-2.34-0.406-9.43-1.7-16.6-4.57-22.8-12.3-2.18-3.91-2.56-7.09-2.49-11.5 0.0091-0.747 0.0182-1.49 0.0276-2.26 0.433-10.5 5.31-18.3 12.9-25.3 5.42-4.61 11-8.97 16.7-13.3 6.18-4.7 12.1-9.61 18-14.7 3.52-3.07 7.13-5.7 11-8.26 2.05-1.57 4.09-3.15 6.12-4.75 4.99-3.88 10.1-7.46 15.4-10.9 13.3-8.75 26.6-17.9 38.9-28 5.09-4 10.7-6.67 16.6-9.38l2.24-1.09c7.01-3.3 14.4-5.54 21.8-7.91 1.02-0.348 2.04-0.696 3.09-1.05 8.83-2.87 17.8-4.36 27-5.12 4.64-0.443 8.11-1.08 11.9-3.82 2.22-3.11 3.95-6.41 5.69-9.81 0.472-0.89 0.945-1.78 1.43-2.7 2.36-4.46 4.63-8.97 6.88-13.5 7.7-15.1 18.2-28.9 28.2-42.5 1.46-2.03 2.83-4.07 4.17-6.18l1.62-2.31h2c0.247-0.742 0.495-1.48 0.75-2.25 1.4-3.07 2.81-4.44 5.25-6.75 3.42-3.71 6.69-7.44 9.5-11.6 2.19-3.17 4.73-5.38 7.7-7.8 1.88-1.64 3.44-3.37 5.05-5.27 6.91-8.08 14.5-15.3 22.8-21.9 4.1-3.31 8.06-6.77 12-10.2 3.49-3.03 7.05-5.66 10.9-8.16 1.14-0.763 2.28-1.53 3.41-2.3 42.2-28.4 42.2-28.4 60.7-33.6 4.53-1.32 8.91-2.81 13.3-4.5 14.7-5.34 31.4-9.14 47.1-10.1 3.14-0.202 5.51-0.439 8.5-1.44 2.46-0.234 4.91-0.422 7.38-0.562 0.715-0.0417 1.43-0.0835 2.17-0.126 27.4-1.49 27.4-1.49 39 1.81 4.06 1.02 6.45 0.718 10.5-0.125 0.539-4.31-0.0778-6.34-2.62-9.69-2.43-3.57-2.6-5.69-1.88-9.94 1.01-4.13 2.36-7.68 4.5-11.4 0.396-0.901 0.396-0.901 0.801-1.82 4.57-10.3 13.1-18.3 23.2-23.2 10.3-3.54 20.4-3.57 31-2zm21 38c6.32 11.3 6.32 11.3 15.9 19.5 5.07 0.827 8.78 0.355 13.1-2.5v-2c0.639-0.268 1.28-0.536 1.94-0.812 2.39-1.07 2.39-1.07 3.06-4.19 1.33-0.667 2.67-1.33 4-2 0.33-0.99 0.66-1.98 1-3 0.99-0.33 1.98-0.66 3-1v-4c-5.96-0.877-11.7-1.09-17.7-1-9.65 0.15-9.65 0.15-14.3-1-3.91-0.293-6.42 0.489-10 2zm138 55c0.594 1.98 0.594 1.98 2 4 2.68 1.33 2.68 1.33 5.88 2.31 13.3 4.83 24.1 13 34.9 22 2.04 1.9 2.04 1.9 4.25 1.7v2c0.99 0.33 1.98 0.66 3 1-0.315-3.36-1.3-5.65-3.11-8.42-2.2-3.45-4.27-6.95-6.3-10.5-0.896-1.57-0.896-1.57-1.81-3.16-1.24-2.17-2.47-4.34-3.7-6.51-0.596-1.04-1.19-2.07-1.81-3.14-0.801-1.41-0.801-1.41-1.62-2.84-1.7-2.47-3.09-3.89-5.66-5.42-9.89-1.15-19.1-0.987-26 7zm-723 696 4 1z" fill="#ffffff"/>
<path transform="translate(934,178)" d="m0 0c1.06-0.018 2.12-0.0361 3.21-0.0547 4.03 0.0582 7.79 0.641 11.7 1.43 0.665 0.126 1.33 0.253 2.01 0.383 3.36 0.651 6.67 1.39 9.97 2.25 4.4 1.12 8.83 1.78 13.3 2.43 6.38 0.965 12.6 2.13 18.8 3.8 6.42 1.67 12.9 3.03 19.5 4.23 2.44 0.527 2.44 0.527 5.17 1.42 8.06 2.55 12.8 1.68 20.3-1.89 20.5-8.75 44.8-5.9 65 2.13 5.23 2.23 10.1 5.01 15 7.87 1.44 0.813 2.87 1.63 4.31 2.44 0.887 0.516 1.77 1.03 2.69 1.56v2c0.7 0.214 1.4 0.428 2.12 0.648 3.64 1.71 6.16 4.15 8.94 6.98 0.516 0.496 1.03 0.993 1.56 1.5 5.75 5.76 8.54 10.9 8.8 19.1-0.0171 2.29-0.0554 4.58-0.113 6.87-0.0145 1.73-0.0145 1.73-0.0293 3.5-0.114 8.58-0.114 8.58-0.931 12.4-0.417 3.49 0.177 4.94 1.78 8.03 0.474 0.942 0.949 1.88 1.44 2.85 0.77 1.48 0.77 1.48 1.55 2.99 7.15 14.3 13.1 29.2 14.2 45.3 1.06 14.5 6.39 25.1 13.5 37.6 2.42 4.55 4.26 9.35 6.14 14.1 0.486 1.22 0.972 2.44 1.47 3.69 5 12.8 9.21 25.9 11.1 39.5 0.485 2.94 1.21 5.79 1.95 8.68 6.03 24.9 6.81 51.2 7.26 76.8 0.124 7.06 0.337 14.1 0.712 21.2 0.0378 0.746 0.0757 1.49 0.115 2.26 0.162 2.84 0.359 5.59 0.931 8.37 0.726 3.73 0.784 7.45 0.923 11.2 0.0737 1.72 0.148 3.44 0.223 5.16 0.113 2.69 0.222 5.38 0.322 8.07 0.0984 2.61 0.213 5.22 0.331 7.83 0.0251 0.791 0.0503 1.58 0.0761 2.4 0.404 8.43 2.78 15.3 7.74 22.2 0.393 0.548 0.785 1.1 1.19 1.66 3.39 4.71 6.91 9.34 10.4 14 14.3 19.2 14.3 19.2 14.3 23.1 0.99 0.33 1.98 0.66 3 1 1.52 2.12 2.9 4.21 4.25 6.44 0.803 1.29 1.61 2.57 2.41 3.86 0.396 0.634 0.792 1.27 1.2 1.92 1.51 2.38 3.12 4.68 4.76 6.97 3.04 4.27 5.84 8.67 8.63 13.1 1.65 2.56 3.36 5.04 5.12 7.52 4.42 6.26 8.52 12.7 12.6 19.2 0.487 0.767 0.975 1.53 1.48 2.32 3.09 4.87 6.18 9.75 9.24 14.6 1.03 1.64 2.06 3.28 3.1 4.91 3.08 4.97 5.79 10.1 8.43 15.3 0.342 0.666 0.684 1.33 1.04 2.02 5.37 10.8 5.87 21.4 5.81 33.2-0.00141 1.05-0.00283 2.11-0.00429 3.19-0.00556 3.33-0.0181 6.66-0.0309 9.99-0.00502 2.27-0.00958 4.54-0.0137 6.81-0.011 5.54-0.0277 11.1-0.0488 16.6-6.23 3.21-12.2 5.08-19.3 3.49-1.45-0.508-2.89-1.04-4.32-1.6-7.38-2.72-15.2-3.93-23-4.89-9.27-1.16-17.8-3.01-26.2-7.03-2.37-1.04-4.72-1.76-7.21-2.47-4.05-1.16-7.78-2.63-11.6-4.41-2.73-1.24-5.5-2.35-8.28-3.47-4.97-2.05-9.6-4.46-14.3-7.09-5.15-2.79-10.5-5.15-15.8-7.54-1.05-0.491-2.1-0.982-3.18-1.49-7.26-3.28-13.1-5.18-20.8-2.45-3.54 2.29-6.79 4.84-10 7.51-1.95 1.43-1.95 1.43-3.95 1.43-0.33 0.99-0.66 1.98-1 3-1.6 1.54-1.6 1.54-3.62 3.19-3.67 3.09-6.72 6.39-9.73 10.1-1.64 1.7-1.64 1.7-3.78 2.74-2.22 0.868-2.22 0.868-2.86 3.96-1.57 1.29-1.57 1.29-3.56 2.62-8.35 6.08-15.5 14.3-18 24.5-0.276 1.93-0.381 3.89-0.477 5.84-0.124 1.16-0.247 2.31-0.375 3.5 0.803 7.5 5.6 12 11.2 16.6 3.97 3.37 7.53 7.15 11.2 10.9 1.39 1.36 1.39 1.36 2.81 2.75 6.19 6.36 6.19 6.36 6.19 9.25 0.99 0.33 1.98 0.66 3 1 1.58 1.71 1.58 1.71 3.25 3.94 0.614 0.815 1.23 1.63 1.86 2.47 2.43 3.33 4.81 6.69 7.14 10.1 1.13 1.62 2.28 3.22 3.46 4.8 5.02 6.8 8.68 14.1 12.3 21.7 0.942 1.97 1.9 3.93 2.87 5.89 6.18 12.7 13.1 27.9 13.1 42.2 2.38-0.115 4.75-0.242 7.12-0.375 0.665-0.0309 1.33-0.0619 2.02-0.0938 4.28-0.252 7.85-1.07 11.9-2.53 1.18-0.165 2.35-0.33 3.56-0.5 3.33-0.331 3.33-0.331 5.78-1.52 3.04-1.13 5.42-1.25 8.66-1.23 1.01-0.00516 2.02-0.0103 3.06-0.0156 3.01 0.272 5.21 1 7.94 2.27v2c0.749 0.241 1.5 0.482 2.27 0.73 3.12 1.45 4.37 2.85 6.42 5.58 0.581 0.759 1.16 1.52 1.76 2.3 4.54 6.99 4.34 14.3 3.55 22.4-1.82 6.48-5.16 11.1-10.7 14.8-3.9 2.04-8 3.19-12.3 4.18 1.83 3.13 3.76 6.19 5.74 9.22 5.62 8.65 10.9 17 14.3 26.8 0.359 1 0.359 1 0.725 2.03 2.78 7.76 5.29 15.4 6.9 23.5 2.75 13.7 10 25.1 21.4 33.4 13.7 9.02 28.7 13.7 44.3 18.6 12.9 4.01 25.7 8.25 35.7 17.7 0.514 0.479 1.03 0.959 1.56 1.45 8.2 7.74 8.2 7.74 11.4 12.3v2c0.99 0.33 1.98 0.66 3 1 0.685 1.32 1.35 2.66 2 4 0.578 0.577 1.16 1.16 1.75 1.75 3.12 3.12 5.85 6.55 8.25 10.2v2c0.99 0.33 1.98 0.66 3 1 0.98 1.4 1.95 2.82 2.86 4.27 2.03 3.1 4.47 5.88 6.83 8.73 5.69 7.02 10.6 14.3 15.3 22 0.626 0.96 1.25 1.92 1.9 2.91 9.68 15.4 13.4 31.5 10.6 49.4-0.643 2.68-1.44 5.13-2.48 7.68-0.294 0.739-0.588 1.48-0.891 2.24-4.7 9.86-14.5 18.8-24.1 23.8-0.908 0.495-1.82 0.99-2.75 1.5-29.5 13.6-61.1 17.8-93.3 17.5-2.16 0.00897-2.16 0.00897-5.23 0.611-2.69 0.438-2.69 0.438-4.56-0.0356-2.37-0.588-4.37-0.592-6.81-0.519-12.7 0.26-24.6-0.612-37.1-2.67-3.66-0.564-7.34-0.868-11-1.13-2.43-0.238-4.76-0.697-7.16-1.21-0.73-0.153-1.46-0.307-2.21-0.465-4.65-1.02-9.21-2.22-13.8-3.54-1.77-0.442-3.54-0.879-5.31-1.31-5.38-1.33-10.7-2.77-16.1-4.25-0.761-0.21-1.52-0.42-2.31-0.636-3.21-0.895-6.39-1.82-9.55-2.89-8.5-2.81-17.6-3.72-26.5-4.63-2.31-0.281-2.31-0.281-4.88-0.801-13.7-1.92-28.3-0.912-42 1.15-2.99 0.45-5.99 0.869-8.98 1.29-2.33 0.338-4.66 0.678-6.99 1.02-1.1 0.158-2.2 0.315-3.33 0.478-5.6 0.852-10.8 1.96-16.1 3.87-3.12 1.09-6.31 1.82-9.53 2.59-5.87 1.43-11.7 2.99-17.5 4.69-0.681 0.198-1.36 0.395-2.06 0.599-4.73 1.4-9.33 3.07-13.9 4.84-1.87 0.697-3.74 1.39-5.61 2.09-14.1 5.21-14.1 5.21-28 10.9-2.37 1.01-4.77 1.93-7.18 2.84-5.06 2.01-9.89 4.45-14.7 6.92-4.46 2.26-8.96 4.43-13.5 6.54-8.88 4.12-17.5 8.63-26 13.5-3.29 1.87-6.64 3.57-10 5.25-3.56 1.8-7.04 3.75-10.5 5.7-1.16 0.649-1.16 0.649-2.35 1.31-1.6 0.894-3.2 1.79-4.8 2.68-2.24 1.25-4.48 2.51-6.73 3.76-1.38 0.769-2.75 1.54-4.12 2.31-0.609 0.34-1.22 0.68-1.85 1.03-8.89 4.99-17.6 10.4-26.2 15.7-1.32 0.814-1.32 0.814-2.67 1.64-5.01 3.1-9.94 6.28-14.8 9.56-2.23 1.48-4.5 2.87-6.82 4.23-4.51 2.68-8.94 5.46-13.4 8.29-1.78 1.14-3.56 2.26-5.34 3.38-10.1 6.35-19.9 13.2-29.7 20.1-3.46 2.44-6.97 4.79-10.5 7.12-4.52 3-8.97 6.09-13.4 9.25-0.592 0.425-1.18 0.85-1.79 1.29-1.69 1.22-3.39 2.43-5.08 3.65-6.5 4.67-13.1 8.96-20 13-1.27 0.76-2.54 1.52-3.81 2.28-12.7 7.55-25.5 15.2-39.2 20.7-1.17 0.482-2.35 0.964-3.55 1.46-11.9 4.85-23.9 8.67-36.3 12-1.82 0.485-3.64 0.987-5.45 1.49-18.1 4.51-47.8 9.05-65.7 3.08-1.39-0.153-2.79-0.274-4.19-0.375-4.69-0.441-9.31-1.16-13.9-2-0.985-0.171-0.985-0.171-1.99-0.345-4.16-0.778-7.96-1.96-11.9-3.51-1.92-0.743-3.86-1.39-5.82-2.02-18.8-6.12-40-15.5-51.3-32.5-3.75-10.1-0.481-22.7 3.16-32.3 0.563-1.55 1.12-3.09 1.68-4.64 1.48-4.08 2.99-8.15 4.52-12.2 1.04-2.79 2.04-5.59 3.05-8.4 1.92-5.28 4.03-10.4 6.62-15.4 1.75-3.44 3.14-6.95 4.5-10.6 2.15-5.7 4.57-11.2 7.16-16.7 1.31-2.79 2.58-5.6 3.84-8.42 3.05-6.73 6.39-13.3 9.72-19.9 0.821-1.63 1.62-3.28 2.41-4.92 3.76-7.26 8.73-13.9 13.6-20.4 2.65-3.59 4.88-7.17 6.94-11.1 4.88-9.23 11.6-14.9 20-20.7 4.24-3.04 7.63-6.23 11-10.2 2.9-3.41 5.95-6.68 8.99-9.96 2.21-2.39 4.26-4.75 6.18-7.38 3.52-4.25 8.43-6.44 13.3-8.94 1.48-0.785 1.48-0.785 2.98-1.59 6.45-3.42 13-6.69 19.5-9.91 3.06-1.56 6-3.25 8.95-5.01 4.76-2.83 9.61-5.4 14.6-7.88 0.675-0.338 1.35-0.675 2.04-1.02 3.45-1.71 6.91-3.3 10.5-4.66l-0.0352-3.3c-0.0397-5.51-0.0133-11 0.0227-16.5 0.0139-2.42 0.0217-4.85 0.03-7.27 0.02-4.75 0.0706-9.5 0.136-14.2 0.0225-1.92 0.0365-3.85 0.0417-5.77 0.0721-21.3 0.0721-21.3 5.8-27.9 3.19-2.22 6.36-3.66 10-5 0.94-0.356 1.88-0.712 2.85-1.08 1.8-0.663 3.6-1.31 5.41-1.93 2.05-0.745 4.08-1.57 6.09-2.43 3.09-1.33 6.19-2.54 9.34-3.7 2.07-0.763 4.14-1.55 6.2-2.33 2.56-0.966 5.1-1.86 7.7-2.71 5.63-1.82 5.63-1.82 9.73-5.81 0.825-2.34 1.28-4.55 1.67-7 0.391-1.69 0.787-3.38 1.19-5.06 0.276-1.31 0.548-2.62 0.812-3.94-0.714-0.245-1.43-0.49-2.16-0.742-8.43-3.74-15.1-11.2-20.8-18.3-1.02-1.22-2.05-2.45-3.07-3.67-16.9-20.4-16.9-20.4-16.9-25.3-1.42-0.0272-2.83-0.0465-4.25-0.0625-0.789-0.0116-1.58-0.0232-2.39-0.0352-2.28 0.00542-2.28 0.00542-4.12 0.584-2.83 0.65-5.53 0.733-8.44 0.83-1.21 0.0419-2.42 0.0838-3.67 0.127-1.26 0.0393-2.52 0.0786-3.82 0.119-1.86 0.0648-1.86 0.0648-3.76 0.131-5.28 0.176-10.5 0.33-15.8 0.271-3.55-0.239-3.55-0.239-5.73 1.04-2.48 0.0988-4.94 0.14-7.42 0.133-0.738 9.57e-4 -1.48 0.00191-2.24 0.0029-1.56 6.81e-4 -3.13-0.00117-4.69-0.00534-2.38-0.00532-4.76-6.86e-5 -7.14 0.00635-1.52-6.61e-4 -3.04-0.00194-4.56-0.00391-0.706 0.00202-1.41 0.00405-2.14 0.00613-4.05-0.0189-7.84-0.368-11.8-1.14-1.26-0.214-2.51-0.428-3.8-0.648-6.99-1.23-13.7-2.5-20.2-5.35-1.11-0.433-2.23-0.866-3.38-1.31-9.03-4.2-14.8-7.85-19.6-16.7-0.328-0.576-0.656-1.15-0.995-1.75-6.09-10.7-10.8-21.7-15.2-33.2-0.79-2.06-0.79-2.06-1.91-4.04-2.38-5.17-0.696-12.1 0.0901-17.5 0.928-7.17 1.25-14.3 1.31-21.5 0.0261-1.44 0.0261-1.44 0.0527-2.92-0.00368-5.28-0.585-9.35-2.64-14.2-2.17-5.46-1.9-11.7-2.22-17.5-0.704-11.8-2.57-21.6-7.51-32.3-0.33-0.99-0.66-1.98-1-3-6.72-3.56-14.7-3.71-22-2-11.3 4.73-21.4 12.4-29 22-0.634 0.737-1.27 1.47-1.92 2.23-5.08 6.02-8.95 12.5-12.7 19.4-2.62 4.7-5.29 9.37-7.97 14-0.978 1.71-1.95 3.42-2.92 5.13-3.48 6.08-7.15 11.7-11.5 17.2-6.14 8.8-11.4 18.3-14.4 28.6-2.17 7.02-7.35 12.8-12.1 18.2-2.8 3.34-4.77 6.97-6.76 10.8-0.381 0.729-0.761 1.46-1.15 2.21-3.3 6.39-6.4 12.9-9.41 19.4-3.77 8.13-8.09 15.8-13.1 23.3-0.432 0.65-0.864 1.3-1.31 1.97-2.78 4.09-5.68 7.7-9.35 11-1.71 1.53-1.71 1.53-3.78 4.3-0.557 0.681-1.11 1.36-1.69 2.06h-2c-0.402 0.959-0.402 0.959-0.812 1.94-1.19 2.06-1.19 2.06-4.19 3.06-0.33 0.66-0.66 1.32-1 2-0.33 0.66-0.66 1.32-1 2-0.99 0.33-1.98 0.66-3 1-0.33 0.99-0.66 1.98-1 3-11 10.5-24.6 16.9-40 17-0.818 0.0122-1.64 0.0245-2.48 0.0371-4.71 0.0691-9.41 0.109-14.1 0.0957-0.799-0.00113-1.6-0.00226-2.42-0.00342-1.98-0.129-1.98-0.129-3.98-1.13-1.7 0.155-1.7 0.155-3.44 0.312-8.68 0.0313-15.4-5.86-21.3-11.6-4.44-4.66-8.45-9.5-12.2-14.7-0.534-0.69-1.07-1.38-1.62-2.09-8.51-11-16-25.3-19.4-38.9-0.264-1-0.529-2.01-0.801-3.04-2.89-12.8-2.92-25.8-3.13-38.8-0.045-2.83-0.108-5.66-0.187-8.49-0.0994-3.61-0.171-7.22-0.224-10.8-0.0237-1.37-0.0555-2.75-0.0961-4.12-0.272-9.67 0.564-17.5 7.41-24.8 11.2-10.4 24.2-13.5 39.2-13.4 1.32-0.00146 2.63-0.00291 3.99-0.00441 2.76-0.00137 5.52 0.011 8.29 0.034 3.52 0.0285 7.03 0.0256 10.5 0.0129 3.39-0.00867 6.78 0.0065 10.2 0.02 1.25-0.00294 2.5-0.00587 3.79-0.0089 16.5 0.177 27.6 7.02 39.4 18.2 5.23 4.53 9.54 4.95 16.4 4.79 4.44-0.758 5.97-2.25 8.54-5.85l1.65-2.69 1.96-3.1c1.95-3.15 3.82-6.34 5.67-9.54 2.13-3.68 4.28-7.36 6.44-11 1.14-1.94 2.28-3.89 3.41-5.84 2.6-4.44 5.22-8.54 8.52-12.5 0.967-1.57 1.9-3.15 2.81-4.75 8.92-15 21.6-23.8 35.9-33.4 5.55-3.74 11-7.43 15.9-12 6.76-6.21 14.3-10.8 22.9-14 1.97-0.732 3.91-1.57 5.82-2.44 3.7-1.49 7.05-2.25 11-2.92 10.5-1.65 10.5-1.65 19.2-7.16 2.41-3.79 3.27-7.03 2.5-11.4-1.74-5.04-3.65-9.78-8.5-12.4-3.6-1.47-7.33-2.24-11.1-3.06-8.73-1.9-14.3-6.16-19.4-13.5-6.03-13.6-1.69-31.4 3.36-44.5 1.46-3.53 3.02-7 4.64-10.5l1.66-3.6c4.24-8.87 9.42-16.4 15.5-24.1 6.67-8.9 10.5-18.5 14.6-28.8 2.29-5.71 4.58-11.3 9.26-15.5 1.46-1.68 2.88-3.38 4.3-5.09 2.13-2.41 4.41-4.65 6.7-6.91l2.5-2.5c7.5-7.5 7.5-7.5 10.1-10.1 10.5-10.4 10.5-10.4 14.6-24-0.239-3.96-1.32-5.64-4.14-8.4-7.51-5.09-16.7-4.61-25.4-4.82-2.61-0.0699-4.96-0.236-7.54-0.672-4.61-0.757-9.22-0.752-13.9-0.879-10.3-0.337-20.5-1.13-30.7-2.12-11.2-1.09-22.4-1.9-33.7-2.21-6.01-0.17-11.7-0.648-17.6-1.85-2.93-0.395-5.61-0.466-8.56-0.438-4.13 0.0389-8.08-0.197-12.2-0.711-7.3-0.842-14.7-1.37-22-1.29-3.64 0.0354-6.93-0.255-10.5-1-0.772-0.134-1.54-0.268-2.34-0.406-9.43-1.7-16.6-4.57-22.8-12.3-2.18-3.91-2.56-7.09-2.49-11.5 0.0091-0.747 0.0182-1.49 0.0276-2.26 0.433-10.5 5.31-18.3 12.9-25.3 5.42-4.61 11-8.97 16.7-13.3 6.18-4.7 12.1-9.61 18-14.7 3.52-3.07 7.13-5.7 11-8.26 2.05-1.57 4.09-3.15 6.12-4.75 4.99-3.88 10.1-7.46 15.4-10.9 13.3-8.75 26.6-17.9 38.9-28 5.09-4 10.7-6.67 16.6-9.38l2.24-1.09c7.01-3.3 14.4-5.54 21.8-7.91 1.02-0.348 2.04-0.696 3.09-1.05 8.83-2.87 17.8-4.36 27-5.12 4.64-0.443 8.11-1.08 11.9-3.82 2.22-3.11 3.95-6.41 5.69-9.81 0.472-0.89 0.945-1.78 1.43-2.7 2.36-4.46 4.63-8.97 6.88-13.5 7.7-15.1 18.2-28.9 28.2-42.5 1.46-2.03 2.83-4.07 4.17-6.18l1.62-2.31h2c0.247-0.742 0.495-1.48 0.75-2.25 1.4-3.07 2.81-4.44 5.25-6.75 3.42-3.71 6.69-7.44 9.5-11.6 2.19-3.17 4.73-5.38 7.7-7.8 1.88-1.64 3.44-3.37 5.05-5.27 6.91-8.08 14.5-15.3 22.8-21.9 4.1-3.31 8.06-6.77 12-10.2 3.49-3.03 7.05-5.66 10.9-8.16 1.14-0.763 2.28-1.53 3.41-2.3 42.2-28.4 42.2-28.4 60.7-33.6 4.53-1.32 8.91-2.81 13.3-4.5 14.7-5.34 31.4-9.14 47.1-10.1 3.14-0.202 5.51-0.439 8.5-1.44 2.46-0.234 4.91-0.422 7.38-0.562 0.715-0.0417 1.43-0.0835 2.17-0.126 27.4-1.49 27.4-1.49 39 1.81 4.06 1.02 6.45 0.718 10.5-0.125 0.539-4.31-0.0778-6.34-2.62-9.69-2.43-3.57-2.6-5.69-1.88-9.94 1.01-4.13 2.36-7.68 4.5-11.4 0.396-0.901 0.396-0.901 0.801-1.82 4.57-10.3 13.1-18.3 23.2-23.2 10.3-3.54 20.4-3.57 31-2zm21 38c6.32 11.3 6.32 11.3 15.9 19.5 5.07 0.827 8.78 0.355 13.1-2.5v-2c0.639-0.268 1.28-0.536 1.94-0.812 2.39-1.07 2.39-1.07 3.06-4.19 1.33-0.667 2.67-1.33 4-2 0.33-0.99 0.66-1.98 1-3 0.99-0.33 1.98-0.66 3-1v-4c-5.96-0.877-11.7-1.09-17.7-1-9.65 0.15-9.65 0.15-14.3-1-3.91-0.293-6.42 0.489-10 2zm84 12c-2.32 3.22-2.32 3.22-3 7h3v2c-1.49 0.495-1.49 0.495-3 1v2h3v7h-4v13h-12v-2h-3c-0.953 4.76-1.08 9.17-1 14-7.91 3.92-15.2 4.75-24 5-0.33 1.65-0.66 3.3-1 5h-35v-6c-0.924-3.28-0.924-3.28-2-6-0.66 0.33-1.32 0.66-2 1v9h-8v-3c-0.639-0.103-1.28-0.206-1.94-0.312-0.681-0.227-1.36-0.454-2.06-0.688-0.33-0.99-0.66-1.98-1-3h-10v-9h6v-3h3v2h2c-0.33-0.99-0.66-1.98-1-3-2.02-0.733-2.02-0.733-4-1v-3h3v2h2c-0.33-1.32-0.66-2.64-1-4-3.96-0.495-3.96-0.495-8-1v2h-2v-2h-3v2h-3v3h-12c-0.33 2.31-0.66 4.62-1 7h3c-0.66 0.66-1.32 1.32-2 2-2.38-0.0234-2.38-0.0234-5.12-0.375-0.91-0.111-1.82-0.222-2.76-0.336-0.699-0.0954-1.4-0.191-2.12-0.289-0.66-1.98-1.32-3.96-2-6-3.12 0.646-3.12 0.646-4 3-0.968 6.32-1.1 12.6-1 19h-6v-11c-1.32-0.33-2.64-0.66-4-1-2.13-3.19-2.5-5.27-3-9-0.66 0.33-1.32 0.66-2 1v2h-3c-0.33 1.65-0.66 3.3-1 5h2c-0.66 1.65-1.32 3.3-2 5h4v8h-9c-0.33 4.95-0.66 9.9-1 15-3.63-0.33-7.26-0.66-11-1 0.33-2.31 0.66-4.62 1-7 1.32-0.33 2.64-0.66 4-1 0.0427-1.67 0.0406-3.33 0-5-0.983-1.21-0.983-1.21-2.85-1.1-2.05 0.0326-4.1 0.0651-6.15 0.0977v2c-1.58-0.142-3.17-0.289-4.75-0.438-0.882-0.0812-1.76-0.162-2.67-0.246-2.58-0.316-2.58-0.316-4.84-0.914-0.572-0.133-1.14-0.266-1.73-0.402-0.33 0.33-0.66 0.66-1 1-2.53 0.0731-5.03 0.0925-7.56 0.0625-0.711-0.00451-1.42-0.00902-2.15-0.0137-1.76-0.0118-3.52-0.0298-5.28-0.0488v-3h-5c-0.33-0.99-0.66-1.98-1-3h-3v3h-4v2c-2.31-0.33-4.62-0.66-7-1-0.33-3.3-0.66-6.6-1-10-0.33 0.66-0.66 1.32-1 2h-3c-0.33 0.66-0.66 1.32-1 2-5.26 1.86-10.5 2.52-16 3v2c-0.641-0.191-1.28-0.382-1.94-0.578-6.27-1.63-6.27-1.63-12.2 0.453-0.949 0.701-1.9 1.4-2.88 2.12v1c0.969-0.0206 1.94-0.0412 2.94-0.0625 3.06 0.0625 3.06 0.0625 4.06 1.06-0.598 0.124-1.2 0.248-1.81 0.375-2.45 0.58-2.45 0.58-5.19 2.62v2c-1.45 0.433-1.45 0.433-2.94 0.875-3.17 0.767-3.17 0.767-4.06 3.12-0.04 2-0.0435 4 0 6h-6v-3h5c-0.33-0.99-0.66-1.98-1-3-0.222-1.89-0.406-3.79-0.562-5.69-0.126-1.49-0.126-1.49-0.254-3.01-0.0606-0.759-0.121-1.52-0.184-2.3h-2v9c-2.13-3.19-2.5-5.27-3-9h-2c0.0116 0.615 0.0232 1.23 0.0352 1.86 0.0135 1.21 0.0135 1.21 0.0273 2.45 0.0116 0.801 0.0232 1.6 0.0352 2.43-0.0977 2.26-0.0977 2.26-1.1 5.26h-3c-0.33 0.99-0.66 1.98-1 3h4v2h-3c-2.48 5.55-1.85 10.2-1 16h-7v-14h-3v5h-5v7h-5c-0.33 0.99-0.66 1.98-1 3h-4v20h-7c0.33-2.31 0.66-4.62 1-7h-5v-2c-4.45 0.99-4.45 0.99-9 2v3h-6v-3h-5c-1.12-5.75-1.12-5.75 0-8-0.33-0.66-0.66-1.32-1-2h-3v9h-5c-0.33 8.91-0.66 17.8-1 27h-6v-16c-3.47 0.99-3.47 0.99-7 2v9h3v12h-6v-3c-1.18-0.186-1.18-0.186-2.38-0.375-2.62-0.625-2.62-0.625-4.62-2.62-0.33 1.32-0.66 2.64-1 4h-2v-2h-2c0.165 1.2 0.33 2.39 0.5 3.62 0.528 4.33 0.981 8.4-0.0625 12.7-1.44 1.69-1.44 1.69-5.06 2.44-1.11 0.0825-2.23 0.165-3.38 0.25v-3h-2c-0.33 0.66-0.66 1.32-1 2-2.06 1.12-2.06 1.12-4 2 0.33 1.32 0.66 2.64 1 4 0.66-0.66 1.32-1.32 2-2 1.99-0.398 3.99-0.738 6-1v10h-5v6h-4v2h-6v3h6v9h-6v5c-0.748-0.0838-1.5-0.168-2.27-0.254-0.985-0.102-1.97-0.204-2.98-0.309-0.975-0.104-1.95-0.209-2.95-0.316-3.03-0.264-3.03-0.264-6.8 0.879v20h-2c0.33 3.96 0.66 7.92 1 12h-9c-0.33 0.99-0.66 1.98-1 3-2.06 0.688-2.06 0.688-4 1 0.33 1.32 0.66 2.64 1 4h3v6h-4v6c-2.97-0.33-5.94-0.66-9-1-0.99-3.47-0.99-3.47-2-7h-2c-0.289 0.763-0.578 1.53-0.875 2.31-1.12 2.69-1.12 2.69-3.12 5.69-0.0264 2.3-0.0264 2.3 0.375 4.69 0.111 0.808 0.222 1.62 0.336 2.45 0.0954 0.615 0.191 1.23 0.289 1.86-1.32 0.33-2.64 0.66-4 1v2h-6l-3-9h-1c-0.33 1.65-0.66 3.3-1 5-0.99 0.33-1.98 0.66-3 1-0.33 0.99-0.66 1.98-1 3-1.65 0.33-3.3 0.66-5 1v2h-10v-2h-2c-0.33-1.32-0.66-2.64-1-4h-5c-0.268 0.619-0.536 1.24-0.812 1.88-1.19 2.12-1.19 2.12-4.19 4.12-0.33 0.66-0.66 1.32-1 2-0.713-0.0232-1.43-0.0464-2.16-0.0703-5.71-0.108-10.5 0.0836-15.8 2.07-0.33 0.33-0.66 0.66-1 1-2.03 0-4.06-0.00358-6.09-0.0625-2-0.0678-2-0.0678-3.91 1.06v2l11 1c-0.33 0.33-0.66 0.66-1 1-1.93-0.0322-3.87-0.068-5.8-0.16-2.87 0.209-4.71 0.677-7.2 2.16-1.04 2.86-1.04 2.86-1.31 6.12l-0.426 3.32-0.262 2.55-8-1-1 4-11 1v-5l-4 1c-0.33 4.95-0.66 9.9-1 15h-3c-0.814 2.85-1.12 5.37-1.1 8.33l0.00977 2.42c0.00838 0.825 0.0168 1.65 0.0254 2.5 0.00451 0.84 0.00902 1.68 0.0137 2.55 0.0117 2.07 0.0297 4.14 0.0488 6.2 3.3-0.33 6.6-0.66 10-1v5c2.64 0.33 5.28 0.66 8 1v-7h7v8c3.3 0.66 6.6 1.32 10 2 0.33 1.32 0.66 2.64 1 4h9c0.33-1.32 0.66-2.64 1-4h7v3c6.59 1.7 13.4 1.36 20 0v2c2.31 0.33 4.62 0.66 7 1 2.28-2.82 2.28-2.82 2-6 3.63-0.33 7.26-0.66 11-1v7h5v3h15c0.33 1.32 0.66 2.64 1 4 1.32 0.33 2.64 0.66 4 1 0.33 1.65 0.66 3.3 1 5h4v10h10c-0.33 3.63-0.66 7.26-1 11h-3v5h-4v5c2.31 0.33 4.62 0.66 7 1v18h2v3c0.99 0.33 1.98 0.66 3 1 0.33 7.26 0.66 14.5 1 22h-3c-2.25 4.5-2.17 8.08-2 13h-9v10h-2c-0.33 1.65-0.66 3.3-1 5h-2v2h-3c-0.33 2.31-0.66 4.62-1 7-1.65 0.33-3.3 0.66-5 1v7c-2.64 0.33-5.28 0.66-8 1v-9h-2c-0.33 1.98-0.66 3.96-1 6h-4c-0.33 5.94-0.66 11.9-1 18-0.66 0.33-1.32 0.66-2 1v4c-1.13 0.289-2.27 0.578-3.44 0.875-1.18 0.371-2.35 0.743-3.56 1.12-1.48 2.96-1.06 5.74-1 9h-3v2h-2c-1.3 4.33-2.34 8.51-3 13-2.97-0.33-5.94-0.66-9-1l1 10h-5c-2.2 7.63-1.91 14.1-1 22l0.297 2.61c0.217 1.8 0.457 3.6 0.703 5.39 0.66-0.33 1.32-0.66 2-1 1.29-5.95 1.1-11.9 1-18 3.3 0.33 6.6 0.66 10 1l-0.0352 2.28c-0.076 8.95 0.394 17.8 1.04 26.7-0.743 0.124-1.48 0.248-2.25 0.375-3.06 0.58-3.06 0.58-6.75 2.62 0.66 3.96 1.32 7.92 2 12h3v5c0.99 0.33 1.98 0.66 3 1 0.495-2.47 0.495-2.47 1-5h4v-3h6v6h-3c-2.29 5.25-2.09 9.5-1 15 0.33 0.66 0.66 1.32 1 2h4c-0.0838 1.11-0.168 2.22-0.254 3.36-0.103 1.46-0.206 2.93-0.309 4.39-0.0561 0.73-0.112 1.46-0.17 2.21-0.245 3.59-0.264 6.59 0.732 10h3v9h6v8h-6v2c3.3 0.66 6.6 1.32 10 2-0.33 2.97-0.66 5.94-1 9h-2c-0.33 2.31-0.66 4.62-1 7h-4c-0.33 1.98-0.66 3.96-1 6 3.3 0.66 6.6 1.32 10 2l1 6h3v7h-2v2h3c-0.0116 0.701-0.0232 1.4-0.0352 2.12-0.0546 5.74 0.179 11.2 1.04 16.9 0.99 0.33 1.98 0.66 3 1 3.4 8.4 3.21 20.4 0.34 29-0.536 2.09-0.536 2.09 0.562 4.2 1.55 3.99 1.52 7.83 1.66 12.1-0.288 5.29-0.288 5.29 1.44 9.75 0.368 2.33 0.702 4.66 1 7h10v15h-4v3c2.34-0.256 4.68-0.593 7-1 0.33-0.66 0.66-1.32 1-2 2.06-0.625 2.06-0.625 4-1v-3c-1.32-0.33-2.64-0.66-4-1v-11h11v5h4v6h-4v6c3.96 0.66 7.92 1.32 12 2 0.33-1.65 0.66-3.3 1-5h7v3c4.22 2.05 7.59 2.18 12.2 2.06 5.71-0.0838 11.1 0.145 16.8 0.938 0.66 2.64 1.32 5.28 2 8h3v-5h3v-4l8 1c0.33 0.99 0.66 1.98 1 3 2.64-0.33 5.28-0.66 8-1v-2h17c0.33 0.99 0.66 1.98 1 3 8.34 1.19 16.6 1.09 25 1 0.33 0.99 0.66 1.98 1 3h4v11c-1.65 0.33-3.3 0.66-5 1v4c3.3 0.33 6.6 0.66 10 1v3c1.65 0.33 3.3 0.66 5 1 0.33 0.99 0.66 1.98 1 3h4v8c-3.63 0.33-7.26 0.66-11 1 0.33 1.65 0.66 3.3 1 5 5.82 1.46 11.8 1.37 17.8 1.61 1.3 0.0561 1.3 0.0561 2.63 0.113 1.18 0.0454 1.18 0.0454 2.38 0.0918 2.17 0.186 4.12 0.601 6.21 1.19v3h6v12c-5.28 0.33-10.6 0.66-16 1v3c1.65 0.33 3.3 0.66 5 1v7c1.32 0.33 2.64 0.66 4 1v-8h11v3c1.65 0.33 3.3 0.66 5 1 0.33 2.31 0.66 4.62 1 7h-7v-5h-2c-0.33 3.3-0.66 6.6-1 10h-2v-5h-1v12h3v6c0.66 0.33 1.32 0.66 2 1 0.407 2.32 0.744 4.66 1 7h-6c-0.33 1.32-0.66 2.64-1 4 3.44 2.29 4.99 2.18 9 2 0.0543 2.54 0.0938 5.08 0.125 7.62 0.0168 0.713 0.0335 1.43 0.0508 2.16 0.0411 4.48-0.485 7.99-2.18 12.2h-3c-1.46 2.65-2 3.89-2 7-1.48-0.114-2.96-0.241-4.44-0.375-0.824-0.0696-1.65-0.139-2.5-0.211-0.682-0.137-1.36-0.273-2.07-0.414-0.33-0.66-0.66-1.32-1-2v8h-3c-0.433 0.959-0.433 0.959-0.875 1.94-1.12 2.06-1.12 2.06-3.12 3.06h-6c-0.33-3.96-0.66-7.92-1-12-0.99 0.33-1.98 0.66-3 1v2h-2c-2.3 6.89-2.44 15-1.44 22.2 0.438 3.81 0.438 3.81-1.56 6.81-0.274 2.03-0.274 2.03-0.195 4.23 0.00645 0.802 0.0129 1.6 0.0195 2.43 0.0168 0.833 0.0335 1.67 0.0508 2.53 0.0135 1.27 0.0135 1.27 0.0273 2.56 0.0235 2.08 0.0594 4.17 0.0977 6.25h-7v-7h-3v-9h3v-12h-3v8h-4c-0.33 4.29-0.66 8.58-1 13h-6c0.0412-0.866 0.0825-1.73 0.125-2.62-0.13-3.5-0.885-6.12-2.12-9.38h-2c-1.33 3-1.33 3 0 6 0.146 1.55 0.247 3.11 0.316 4.67 0.0628 1.34 0.0628 1.34 0.127 2.71 0.0393 0.929 0.0786 1.86 0.119 2.81 0.0432 0.94 0.0864 1.88 0.131 2.85 0.106 2.32 0.208 4.64 0.307 6.96h4v9h-5v5h5c0.0272 1.9 0.0465 3.79 0.0625 5.69 0.0116 1.06 0.0232 2.11 0.0352 3.2-0.0901 2.87-0.272 5.36-1.1 8.11-2.56 1.31-2.56 1.31-5 2v3h5c0.33 4.29 0.66 8.58 1 13h-7v-7h-3c-0.33 2.31-0.66 4.62-1 7h-8v-2c-2.82-2.28-2.82-2.28-6-2v7h5c-0.33 3.63-0.66 7.26-1 11h-3c-0.224 0.645-0.449 1.29-0.68 1.95-1.32 2.05-1.32 2.05-3.7 2.66-1.36 0.0696-1.36 0.0696-2.74 0.141-0.91 0.0567-1.82 0.113-2.76 0.172-0.699 0.0258-1.4 0.0516-2.12 0.0781-0.33-2.97-0.66-5.94-1-9h-4c-0.672 1.29-1.34 2.58-2 3.88-0.371 0.719-0.743 1.44-1.12 2.18-1.01 1.89-1.01 1.89-0.875 3.95h-5c-0.99 4.95-0.99 4.95-2 10-4.37 1.46-8.92 1.55-13.4 0.375l-1.62-0.375c-0.66 0.66-1.32 1.32-2 2-1.32 0.697-2.65 1.37-4 2h2c-0.66 2.97-1.32 5.94-2 9-2.97 0.33-5.94 0.66-9 1v3h-20v4h-4c-0.124 0.969-0.247 1.94-0.375 2.94-0.206 1.01-0.412 2.02-0.625 3.06-0.66 0.33-1.32 0.66-2 1v3c-0.736-0.0116-1.47-0.0232-2.23-0.0352l-2.96-0.0273c-0.963-0.0116-1.93-0.0232-2.92-0.0352-2.75 0.0928-5.22 0.477-7.89 1.1l0.0352 3.11c0.00938 1.36 0.0185 2.72 0.0273 4.08 0.00838 0.674 0.0168 1.35 0.0254 2.04 0.0181 3.71-0.0199 7.2-1.09 10.8-0.66 0.33-1.32 0.66-2 1-0.603 2.24-0.956 4.49-1.34 6.77-0.753 2.54-1.78 3.43-3.66 5.23-0.251 2.63-0.251 2.63 0 5h-3v5h-5v2h-5v4h-2c-0.33 1.32-0.66 2.64-1 4h2c-0.981 8.5-0.981 8.5-3 11-3.13 0.75-3.13 0.75-6 1l0.0352 2.38c0.0486 5.66-0.0222 11-1.04 16.6-1.65 0.33-3.3 0.66-5 1v6h-3c-0.33 2.97-0.66 5.94-1 9-1.98 0.66-3.96 1.32-6 2 0.0314 0.885 0.0314 0.885 0.0635 1.79 0.0832 2.67 0.135 5.35 0.187 8.02 0.0335 0.929 0.067 1.86 0.102 2.81 0.0129 0.893 0.0258 1.79 0.0391 2.71 0.0209 0.822 0.0419 1.64 0.0635 2.49-0.454 2.18-0.454 2.18-2.48 3.97-0.978 0.598-0.978 0.598-1.98 1.21 1.37 2.74 1.37 2.74 4 5 3.1 0.218 5.97-0.377 9-1 1.18-0.186 2.35-0.371 3.56-0.562 0.804-0.144 1.61-0.289 2.44-0.438l1 6h4v5h6v7h3v-13h7v7h4v6c3.38 0.845 5.67 1.11 9 0v-2h7v3h9v-2c3.65-0.752 7.32-1.4 11-2v4h4v-3c1.65-0.33 3.3-0.66 5-1v-6h7v4c5.02-0.33 5.02-0.33 9-3 4.04-1.42 8.12-1.03 12.3-0.938 2.41-0.0567 4.36-0.369 6.66-1.06v-2c1.98-0.66 3.96-1.32 6-2 0.33-1.65 0.66-3.3 1-5 0.959-0.186 0.959-0.186 1.94-0.375 1.02-0.309 1.02-0.309 2.06-0.625 0.33-0.66 0.66-1.32 1-2 2.56-0.625 2.56-0.625 5-1v-3h5v-3h10v-5c1.65-0.33 3.3-0.66 5-1v-10h7v7c0.99-0.33 1.98-0.66 3-1v-4c0.743-0.144 1.48-0.289 2.25-0.438 2.27-0.464 4.51-0.981 6.75-1.56 1.1-4.41 1.08-8.48 1-13h7v5h3v-2c2.64-0.33 5.28-0.66 8-1 0.66-3.3 1.32-6.6 2-10h4v-3c0.996 0.0348 0.996 0.0348 2.01 0.0703 6.72 0.166 6.72 0.166 13-2.07v-5c1.65-0.33 3.3-0.66 5-1 0.33-2.31 0.66-4.62 1-7 1.98-0.33 3.96-0.66 6-1v7h3c0.33-0.66 0.66-1.32 1-2 0.99-0.33 1.98-0.66 3-1 0.33-1.65 0.66-3.3 1-5h5v-6h5v-7c0.675-0.0606 1.35-0.121 2.05-0.184 0.892-0.0838 1.78-0.168 2.7-0.254l2.67-0.246c2.3-0.282 4.39-0.574 6.58-1.32 1.28-1.98 1.28-1.98 2-4 5.57-0.127 5.57-0.127 7.91 0.562 2.58 0.538 4.3 0.135 6.84-0.5 0.799-0.195 1.6-0.389 2.42-0.59 0.905-0.234 0.905-0.234 1.83-0.473v-3h-3c0.375-2.94 0.375-2.94 1-6 0.66-0.33 1.32-0.66 2-1 0.33-0.99 0.66-1.98 1-3 3.12-2.08 6.34-2.5 10-3v-2c1.2-0.254 2.41-0.508 3.65-0.77 1.58-0.347 3.15-0.695 4.73-1.04 0.794-0.166 1.59-0.331 2.41-0.502 0.761-0.171 1.52-0.342 2.3-0.518 1.05-0.228 1.05-0.228 2.13-0.46 2.17-0.662 2.17-0.662 3.79-3.71v-4h4c0.33-1.65 0.66-3.3 1-5 0.743-0.144 1.49-0.289 2.25-0.438 0.908-0.186 1.82-0.371 2.75-0.562 0.743-0.144 1.49-0.289 2.25-0.438 0.577-0.186 1.15-0.371 1.75-0.562 0.33-0.66 0.66-1.32 1-2 2.5-0.633 2.5-0.633 5.56-1.12 1.01-0.168 2.02-0.335 3.07-0.508 0.782-0.121 1.56-0.242 2.37-0.367v3c2.05-0.564 2.05-0.564 4-2 0.33-1.98 0.66-3.96 1-6 5.28 0.33 10.6 0.66 16 1v-2h3c0.33-1.65 0.66-3.3 1-5h5v-2h4c0.33-1.65 0.66-3.3 1-5 0.978-0.164 0.978-0.164 1.98-0.332 5.14-0.933 9.44-2.02 14-4.67v-3c3.3 0.33 6.6 0.66 10 1v-2c1.65-0.33 3.3-0.66 5-1v-3h5c0.33-1.32 0.66-2.64 1-4 1.77-0.168 3.54-0.335 5.31-0.5 0.986-0.0928 1.97-0.186 2.99-0.281 2.7-0.219 2.7-0.219 5.7-0.219 0.33-0.66 0.66-1.32 1-2 1.32-0.33 2.64-0.66 4-1 0.33-3.3 0.66-6.6 1-10h11v5h9v-13c3.63-0.33 7.26-0.66 11-1v3h4v-3c1.65-0.33 3.3-0.66 5-1v-6h7v5c1.98 0.194 3.96 0.38 5.94 0.562 1.1 0.104 2.2 0.209 3.34 0.316 0.898 0.04 1.8 0.0799 2.72 0.121 0.33-0.33 0.66-0.66 1-1v-5c3.3 0.33 6.6 0.66 10 1v-3h6v5h4c0.33-3.3 0.66-6.6 1-10 1.98-0.33 3.96-0.66 6-1v3h4c0.33 1.32 0.66 2.64 1 4h3v-2h4c0.33-1.32 0.66-2.64 1-4 5.28 0.66 10.6 1.32 16 2 0.33 1.32 0.66 2.64 1 4h3c0.33-1.32 0.66-2.64 1-4 3.3-0.33 6.6-0.66 10-1 0.99 1.65 1.98 3.3 3 5 3.58-0.392 3.58-0.392 6.34-2.47 2.18-2.02 3.94-2.23 6.84-2.72 0.901-0.159 1.8-0.317 2.73-0.48 0.687-0.11 1.37-0.219 2.08-0.332v-3c0.941 0.0954 1.88 0.191 2.85 0.289 1.87 0.166 1.87 0.166 3.77 0.336 1.23 0.116 2.46 0.232 3.73 0.352 3.73 0.024 6.19-0.666 9.65-1.98 3.25-0.25 3.25-0.25 6 0 0.66 0.66 1.32 1.32 2 2h3v2h9c0.33-2.64 0.66-5.28 1-8h6v5c1.65 0.33 3.3 0.66 5 1 0.33 1.65 0.66 3.3 1 5h2c0.33-1.65 0.66-3.3 1-5 3.63-0.66 7.26-1.32 11-2v3h4v4c1.65 0.33 3.3 0.66 5 1 0.33 0.99 0.66 1.98 1 3h3c0.33-1.98 0.66-3.96 1-6 1.98-0.33 3.96-0.66 6-1v5c1.32 0.33 2.64 0.66 4 1 0.33 1.32 0.66 2.64 1 4h2c0.33-1.32 0.66-2.64 1-4 2.56-0.0271 5.12-0.0469 7.69-0.0625 0.721-0.00838 1.44-0.0168 2.19-0.0254 3.84-0.0175 7.39 0.153 11.1 1.09 0.33 1.32 0.66 2.64 1 4h14v3c0.66 0.33 1.32 0.66 2 1 0.625 2.06 0.625 2.06 1 4 5.51 1.71 8.53 2.46 14 0v-3h7v4h12c0.33-4.62 0.66-9.24 1-14h7v10h4v3c2.64-0.33 5.28-0.66 8-1 0.961-2.88 1.11-4.7 1.06-7.69-0.0135-1.21-0.0135-1.21-0.0273-2.45-0.0116-0.615-0.0232-1.23-0.0352-1.86 1.98 0.33 3.96 0.66 6 1 0.33 1.32 0.66 2.64 1 4h4v2c1.3 0.186 2.6 0.371 3.94 0.562 0.731 0.104 1.46 0.209 2.21 0.316 0.61 0.04 1.22 0.0799 1.85 0.121 1.42-1.18 1.42-1.18 1.06-4.56-0.0309-1.7-0.0309-1.7-0.0625-3.44h7v2h7c0.33-2.64 0.66-5.28 1-8h3v-2h-3c0.113-2.15 0.241-4.29 0.375-6.44 0.104-1.79 0.104-1.79 0.211-3.62 0.137-0.971 0.273-1.94 0.414-2.94 0.66-0.33 1.32-0.66 2-1-0.281-1.48-0.575-2.96-0.875-4.44-0.162-0.824-0.325-1.65-0.492-2.5-0.209-0.682-0.418-1.36-0.633-2.07-0.66-0.33-1.32-0.66-2-1v8c-2.64-0.33-5.28-0.66-8-1-0.33-3.3-0.66-6.6-1-10h3v-2h-3v-3c-0.66-0.33-1.32-0.66-2-1-0.852-1.85-0.852-1.85-1.62-4.06-0.26-0.733-0.521-1.47-0.789-2.22-0.193-0.566-0.387-1.13-0.586-1.71h-2c0.33-3.96 0.66-7.92 1-12-1.28-0.495-2.56-0.99-3.88-1.5-0.719-0.278-1.44-0.557-2.18-0.844-1.92-0.763-1.92-0.763-3.95-0.656v-4h-2c-0.33-0.99-0.66-1.98-1-3h-3c0.33-0.66 0.66-1.32 1-2h3c-1.22-2.69-1.22-2.69-3-5h3c-1.25-3.65-1.67-4.78-5-7-0.688-2.13-0.688-2.13-1-4-0.577 0.784-1.16 1.57-1.75 2.38-2.08 2.43-3.34 3.48-6.25 4.62v8h-6c0.0326-1.99 0.0651-3.97 0.0977-5.96-0.015-2.25-0.015-2.25-1.1-5.04h2v3h3c-0.113-1.96-0.113-1.96-1-4-4.25-2.65-9.15-2.46-14-2-2.93 0.867-2.93 0.867-5 2-0.33-0.99-0.66-1.98-1-3v2c-4.84-0.593-9.33-1.59-14-3-1.33-0.341-2.66-0.679-4-1-0.33-1.65-0.66-3.3-1-5-0.66 0.33-1.32 0.66-2 1-0.652 2.02-0.652 2.02-1 4h-6c-0.66-1.98-1.32-3.96-2-6h-3v-2h3v-3h-2c-0.33-2.31-0.66-4.62-1-7-2.64-0.33-5.28-0.66-8-1-0.33 0.99-0.66 1.98-1 3h-11c-0.33-4.62-0.66-9.24-1-14-3.3 0.33-6.6 0.66-10 1v-3h10v-3c-1.98 0.33-3.96 0.66-6 1v-5c-6.03-1.07-11.9-1.1-18-1v-5c-0.639-0.103-1.28-0.206-1.94-0.312-0.681-0.227-1.36-0.454-2.06-0.688-0.33-0.99-0.66-1.98-1-3h-4v-6h4v-2h-4c0.0174-1.19 0.0174-1.19 0.0352-2.41 0.0834-7.84 0.0834-7.84-1.04-15.6h-5v-14h9c0.33-2.97 0.66-5.94 1-9h-2v2h-3v-2h-2v2h-9c-0.33-2.64-0.66-5.28-1-8h2c0.33-0.99 0.66-1.98 1-3 0.33 0.99 0.66 1.98 1 3h3c0.33-2.64 0.66-5.28 1-8h-12v-2h-5v-7h6v-2c1.65-0.66 3.3-1.32 5-2v-10h-1v5h-11c-0.0816-4.16 0.0175-7.95 1-12 1.32-0.33 2.64-0.66 4-1h-4c-0.33-2.31-0.66-4.62-1-7h2v2h2c1.23-8.03 1.41-13-3-20 0.66-0.33 1.32-0.66 2-1-0.99-1.98-1.98-3.96-3-6-0.33 0.66-0.66 1.32-1 2h-4c-0.33-0.66-0.66-1.32-1-2v2h-4c0.33-2.97 0.66-5.94 1-9-1.65-0.66-3.3-1.32-5-2v2c-0.828-0.476-0.828-0.476-1.67-0.961-2.61-1.17-4.73-1.44-7.58-1.66-0.892-0.0748-1.78-0.15-2.7-0.227-0.675-0.049-1.35-0.098-2.05-0.148 0.269-1.66 0.269-1.66 0.543-3.36 0.216-1.46 0.431-2.93 0.645-4.39 0.121-0.73 0.241-1.46 0.365-2.21 0.485-3.44 0.765-5.49-1-8.55-0.512-0.49-1.02-0.98-1.55-1.48v3h-6c0.107-0.615 0.214-1.23 0.324-1.86 0.18-1.21 0.18-1.21 0.363-2.45 0.128-0.801 0.255-1.6 0.387-2.43 0.115-2.29 0.115-2.29-1.17-4.02-2.67-1.75-4.86-1.73-8.03-1.87-5.79-0.292-5.79-0.292-6.88-1.38-2.53-0.237-5.03-0.422-7.56-0.562-0.711-0.0432-1.42-0.0864-2.15-0.131-1.76-0.106-3.52-0.207-5.28-0.307v-9c2.31-0.33 4.62-0.66 7-1 0.33-0.99 0.66-1.98 1-3-0.33-0.66-0.66-1.32-1-2 0.33-0.99 0.66-1.98 1-3-0.99-0.33-1.98-0.66-3-1v4h-4c-0.33-1.32-0.66-2.64-1-4v5h-10v-8h7c0.0309-1.83 0.0309-1.83 0.0625-3.69 0.0174-1.03 0.0174-1.03 0.0352-2.07-0.0615-2.72-0.0615-2.72-1.1-7.24-3.63-0.33-7.26-0.66-11-1v-2h-2v2h-8v-4h-3v-6c1.03-0.0561 1.03-0.0561 2.08-0.113 0.901-0.0657 1.8-0.131 2.73-0.199 0.893-0.058 1.79-0.116 2.71-0.176 2.81-0.579 3.79-1.23 5.48-3.51v-2h3v-2c-10.7-1.28-10.7-1.28-21 1v-8c-1.65-0.66-3.3-1.32-5-2 0.0174-1.25 0.0174-1.25 0.0352-2.53 0.0528-6.59-0.15-12.9-1.04-19.5h-2c-0.33 2.64-0.66 5.28-1 8-3.63 0.33-7.26 0.66-11 1v-13h10c0.33-4.62 0.66-9.24 1-14 0.99-0.33 1.98-0.66 3-1v-9h-4v-3h-3v12h-10v2h-6v-11h3v-3h-8c0.33-3.63 0.66-7.26 1-11h3v-9h4v-6h-3v-6c1.65-0.33 3.3-0.66 5-1v-3c0.763-0.144 1.53-0.289 2.31-0.438 2.77-0.526 2.77-0.526 5.69-1.56v-2c-0.99-0.33-1.98-0.66-3-1v-11c1.65-0.33 3.3-0.66 5-1 0.99-0.33 1.98-0.66 3-1 1.1-3.29 1.1-5.74 1.06-9.19-0.0135-1.63-0.0135-1.63-0.0273-3.29-0.0116-0.831-0.0232-1.66-0.0352-2.52 3.3-0.33 6.6-0.66 10-1v-3c0.638 0.0116 1.28 0.0232 1.93 0.0352 0.826 0.00902 1.65 0.018 2.5 0.0273 1.24 0.0174 1.24 0.0174 2.5 0.0352 2.06 0.135 2.06 0.135 3.07-1.1 0.0727-2.35 0.0837-4.71 0.0625-7.06-0.0135-1.94-0.0135-1.94-0.0273-3.91-0.0116-0.999-0.0232-2-0.0352-3.03 2.97 0.33 5.94 0.66 9 1v-2h6v-3c1.65-0.33 3.3-0.66 5-1v-10c1.65-0.66 3.3-1.32 5-2v-3c0.996 0.0348 0.996 0.0348 2.01 0.0703 6.72 0.166 6.72 0.166 13-2.07v-2c0.675-0.0606 1.35-0.121 2.05-0.184 1.34-0.126 1.34-0.126 2.7-0.254 0.882-0.0812 1.76-0.162 2.67-0.246 2.27-0.279 4.38-0.704 6.58-1.32 0.33-1.32 0.66-2.64 1-4 1.65-0.33 3.3-0.66 5-1v-3h7v3h12c0.33-0.99 0.66-1.98 1-3h12c0.33 1.32 0.66 2.64 1 4h2v-4h22v8h-7v-2h-7v3c1.65 0.33 3.3 0.66 5 1v2c18.1 1.54 18.1 1.54 36-1 0.33-0.66 0.66-1.32 1-2-2.75-0.917-4.36-1.11-7.19-1.06-1.89 0.0309-1.89 0.0309-3.81 0.0625v-5c-0.639-0.103-1.28-0.206-1.94-0.312-0.681-0.227-1.36-0.454-2.06-0.688-1.28-3.85-1.07-6.95-1-11 0.855-0.049 1.71-0.098 2.59-0.148 1.66-0.112 1.66-0.112 3.35-0.227 1.1-0.0696 2.2-0.139 3.34-0.211 0.898-0.137 1.8-0.273 2.72-0.414 0.33-0.66 0.66-1.32 1-2-1.3-0.144-2.6-0.289-3.94-0.438-3.94-0.438-3.94-0.438-5.06-1.56-2.53-0.0731-5.03-0.0925-7.56-0.0625-0.711 0.00451-1.42 0.00902-2.15 0.0137-1.76 0.0118-3.52 0.0298-5.28 0.0488 0.75-6.62 0.75-6.62 3-10 1.65-0.33 3.3-0.66 5-1-0.33-3.63-0.66-7.26-1-11-0.928-0.309-1.86-0.619-2.81-0.938-2.06-0.688-4.12-1.38-6.19-2.06v6c-1.98-0.33-3.96-0.66-6-1-0.33-1.98-0.66-3.96-1-6 1.13 0.0206 2.27 0.0412 3.44 0.0625 3.38 0.353 3.38 0.353 4.56-1.06 2.06 0.438 2.06 0.438 4 1-0.33-0.99-0.66-1.98-1-3h-2c0.33-0.66 0.66-1.32 1-2h2c-0.33-1.65-0.66-3.3-1-5-1.65 0.33-3.3 0.66-5 1-0.33-1.65-0.66-3.3-1-5h-4v-4c-2.97-0.66-5.94-1.32-9-2-0.0606-0.782-0.121-1.56-0.184-2.37-0.0838-1.01-0.168-2.02-0.254-3.07-0.0812-1.01-0.162-2.02-0.246-3.06-0.0485-2.44-0.0485-2.44-1.32-3.5-1.67-0.0406-3.33-0.0427-5 0v-9h-5v-12h10c0.33-0.66 0.66-1.32 1-2-0.33-0.66-0.66-1.32-1-2h-5c-0.33-0.99-0.66-1.98-1-3h-2v3h-12v-26h5v-14c-2.31-0.33-4.62-0.66-7-1-0.33 1.32-0.66 2.64-1 4h-11v-8h4c-0.33-2.97-0.66-5.94-1-9h-3v-7h3c-0.33-0.99-0.66-1.98-1-3h-2v-51c5.61 0.33 11.2 0.66 17 1-0.33 2.31-0.66 4.62-1 7 0.26 2.34 0.574 4.68 1 7h3c1.19-3.56 1.1-6.44 1.06-10.2-0.0135-1.91-0.0135-1.91-0.0273-3.86-0.0116-0.976-0.0232-1.95-0.0352-2.96-3.3-0.33-6.6-0.66-10-1 0.33-3.3 0.66-6.6 1-10-1.98 0.33-3.96 0.66-6 1v9h-7v-12h4v-6c-0.33 0.99-0.66 1.98-1 3h-7c0.0206-1.26 0.0412-2.52 0.0625-3.81 0.00865-5.43-0.497-10.8-1.06-16.2h-2c-0.194-2.65-0.38-5.29-0.562-7.94-0.0561-0.755-0.112-1.51-0.17-2.29-0.129-1.92-0.203-3.85-0.268-5.78 0.33-0.33 0.66-0.66 1-1 0.0406-1.67 0.0427-3.33 0-5 1.98-0.495 1.98-0.495 4-1v-3h-4v-4h-5v-7h8v5h3v4c4.32 0.762 7.74 1.16 12 0v-2c-1.65-0.33-3.3-0.66-5-1-1.42-5.86-1.17-11.1 0-17-0.33-0.66-0.66-1.32-1-2h-3v2h-3c-0.33 0.99-0.66 1.98-1 3-0.66 0.33-1.32 0.66-2 1v2c-1.98-0.33-3.96-0.66-6-1v-9c2.97-0.99 2.97-0.99 6-2v-2c0.66-0.33 1.32-0.66 2-1-0.33-0.99-0.66-1.98-1-3-2.31-0.33-4.62-0.66-7-1-0.195-2.02-0.391-4.04-0.586-6.05-0.278-2.17-0.278-2.17-2.41-3.95h-4c-0.33-0.66-0.66-1.32-1-2v2h-7c-0.99-4.29-1.98-8.58-3-13h-7v-4c-1.65-0.33-3.3-0.66-5-1v-8h5v-3c1.49-0.495 1.49-0.495 3-1-1.32-0.66-2.64-1.32-4-2h4c-0.33-1.65-0.66-3.3-1-5-3.81-1.01-6.72-0.946-10.6-0.5-0.817 0.0928-1.63 0.186-2.48 0.281-0.94 0.108-0.94 0.108-1.9 0.219v-2c-0.99-0.33-1.98-0.66-3-1v2h-7v-2h-4c-0.33-2.97-0.66-5.94-1-9 4-2 4-2 6.25-1.62 0.866 0.309 0.866 0.309 1.75 0.625v-3c-1.32-0.66-2.64-1.32-4-2h4v-3c-2.47-0.99-2.47-0.99-5-2v2c-0.495-0.33-0.99-0.66-1.5-1-3.59-1.44-6.64-1.13-10.5-1-0.33-0.99-0.66-1.98-1-3h-2c-0.33-0.99-0.66-1.98-1-3h-2c-0.66 0.99-1.32 1.98-2 3 0.33-4.95 0.66-9.9 1-15h-2c-0.33 2.64-0.66 5.28-1 8-2.97 0.495-2.97 0.495-6 1v-4h-5v-6h-4v-10h6v5h2c0.289-1.11 0.577-2.23 0.875-3.38 1.12-3.62 1.12-3.62 3.12-5.62-1.99-0.381-3.99-0.713-6-1-0.33 0.33-0.66 0.66-1 1-2.94 0.25-2.94 0.25-6 0-0.66-0.99-1.32-1.98-2-3h-3v-4h-5c0.553-1.95 1.11-3.91 1.66-5.86 0.375-2.36 0.0664-3.88-0.66-6.14h2v-3h-3v-2h-10c0.33-2.64 0.66-5.28 1-8 0.566-0.159 1.13-0.317 1.71-0.48 2.21-0.704 4.24-1.42 6.29-2.52 0.909-2.46 0.909-2.46 1-5 1.56-1.81 1.56-1.81 3-3h-8v-3h6c0.33-0.66 0.66-1.32 1-2h-7v-3c0.66-0.33 1.32-0.66 2-1-1.32-0.33-2.64-0.66-4-1v-3h-2zm54 43c0.594 1.98 0.594 1.98 2 4 2.68 1.33 2.68 1.33 5.88 2.31 13.3 4.83 24.1 13 34.9 22 2.04 1.9 2.04 1.9 4.25 1.7v2c0.99 0.33 1.98 0.66 3 1-0.315-3.36-1.3-5.65-3.11-8.42-2.2-3.45-4.27-6.95-6.3-10.5-0.896-1.57-0.896-1.57-1.81-3.16-1.24-2.17-2.47-4.34-3.7-6.51-0.596-1.04-1.19-2.07-1.81-3.14-0.801-1.41-0.801-1.41-1.62-2.84-1.7-2.47-3.09-3.89-5.66-5.42-9.89-1.15-19.1-0.987-26 7zm-723 696 4 1z" fill="#ffffff"/>
<path transform="translate(310 988)" d="m0 0c3.84 1.5 7.34 1.24 11.4 1.13 8.07-0.182 8.07-0.182 10.3 0.938v4h-3c0.495 2.48 0.495 2.48 1 5h5c0.495 1.98 0.495 1.98 1 4h2c0.66-1.32 1.32-2.64 2-4 1.06 2.38 1.06 2.38 2 5-0.33 0.66-0.66 1.32-1 2h10c-0.495 1.49-0.495 1.49-1 3-3.3 0.33-6.6 0.66-10 1 3.63 0.33 7.26 0.66 11 1-0.495 1.49-0.495 1.49-1 3-3.47 1.16-6.36 1.07-10 1 0.495 3.47 0.495 3.47 1 7 0.603 0.0142 1.21 0.0284 1.83 0.043 6.61 0.394 6.61 0.394 9.73 3.52 0.474 0.804 0.949 1.61 1.44 2.44-1 1-1 1-4.56 1.06-1.13-0.0206-2.27-0.0412-3.44-0.0625v6h-5c-0.33 1.32-0.66 2.64-1 4h-3c-0.66 2.97-1.32 5.94-2 9h-4c-0.33 0.99-0.66 1.98-1 3-0.918-0.0116-1.84-0.0232-2.78-0.0352-7.92-0.119-7.92-0.119-15.8 0.66-3.57 0.389-5.3 0.0393-8.44-1.62v-2h-4c-0.495-9.9-0.495-9.9-1-20-3.3-0.33-6.6-0.66-10-1v-2h-6v8h-4c-0.33-2.64-0.66-5.28-1-8h-2c-2.85-5.7-0.429-16.5 1.44-22.4 1.56-3.62 1.56-3.62 3.56-4.62 0.66 0.33 1.32 0.66 2 1v2c6.93-0.66 13.9-1.32 21-2v-11c5-1 5-1 7.27-0.0664z" fill="#ffffff"/>
<path transform="translate(546,931)" d="m0 0c2.48 0.99 2.48 0.99 5 2 0.121 0.929 0.242 1.86 0.367 2.82 0.986 7.55 0.986 7.55 2.76 14.9 1.2 4.44 1.04 8.68 0.875 13.2 0.66 0.33 1.32 0.66 2 1-0.66 4.62-1.32 9.24-2 14-1.49 0.495-1.49 0.495-3 1 0.823 13.2 0.823 13.2 6 25 0.99 0.33 1.98 0.66 3 1 1.19 2.56 1.19 2.56 2 5l-2 2h2v4c2 5.68 5.41 14.2 11 17v2h2v2c0.99 0.33 1.98 0.66 3 1 0.33 0.99 0.66 1.98 1 3 2.97 0.495 2.97 0.495 6 1v2c4.88 0.09 9.66 0.132 14.5-0.562 3.5-0.438 3.5-0.438 5.5 0.562l1-2c0.559 0.0838 1.12 0.168 1.7 0.254 6.54 0.831 12.7 0.569 19.3 0 3-0.254 3-0.254 6-0.254v3c0.99-0.33 1.98-0.66 3-1-0.66-0.66-1.32-1.32-2-2h4v3h4c0.495-1.48 0.495-1.48 1-3 3.3 0.33 6.6 0.66 10 1l1-2c0.536 0.165 1.07 0.33 1.62 0.5 3.58 0.754 7.05 1.16 10.4-0.5 3.44-0.312 3.44-0.312 7 0 1.94 2 1.94 2 3 4-7.43 0.143-7.43 0.143-11-1v2h8v2c6.2 0.38 10.4-0.165 16-3h-6l1-2c2.33-0.668 2.33-0.668 5.25-1.19 0.954-0.179 1.91-0.358 2.89-0.543 2.89-0.272 5.07 0.0121 7.86 0.73-0.99 0.66-1.98 1.32-3 2h1 8c0.33 0.99 0.66 1.98 1 3 0.825 0.33 1.65 0.66 2.5 1 0.825 0.33 1.65 0.66 2.5 1 0.33 0.99 0.66 1.98 1 3-1.32-0.33-2.64-0.66-4-1v2h2v2c0.598 0.0412 1.2 0.0825 1.81 0.125 2.19 0.875 2.19 0.875 3.94 3.94 0.413 0.969 0.825 1.94 1.25 2.94h4c0.48 1.27 0.959 2.54 1.44 3.81 0.267 0.708 0.534 1.42 0.809 2.14 0.616 1.67 1.19 3.35 1.75 5.04h4c1.75 1.44 1.75 1.44 3 4 0.244 3.02 0.174 5.98 0 9 0.619 0.289 1.24 0.577 1.88 0.875 2.12 1.12 2.12 1.12 4.12 3.12h3c2.44 1.17 4.68 2.6 7 4l1-2c1.32 0.66 2.64 1.32 4 2v2c0.99 0.33 1.98 0.66 3 1v2h-2v-2h-2c-2.37 2.85-2.37 2.85-1.62 6.19 0.206 0.928 0.413 1.86 0.625 2.81-0.99 0.33-1.98 0.66-3 1-1.5-1.31-1.5-1.31-3-3v-3c-0.714-0.245-1.43-0.49-2.16-0.742-8.43-3.74-15.1-11.2-20.8-18.3-1.02-1.22-2.05-2.45-3.07-3.67-16.9-20.4-16.9-20.4-16.9-25.3-1.42-0.0272-2.83-0.0465-4.25-0.0625-1.18-0.0174-1.18-0.0174-2.39-0.0352-2.28 0.00542-2.28 0.00542-4.12 0.584-2.83 0.65-5.53 0.733-8.44 0.83-1.21 0.0419-2.42 0.0838-3.67 0.127-1.26 0.0393-2.52 0.0786-3.82 0.119-1.24 0.0432-2.48 0.0864-3.76 0.131-5.28 0.176-10.5 0.33-15.8 0.271-3.55-0.239-3.55-0.239-5.73 1.04-2.48 0.0988-4.94 0.14-7.42 0.133-1.11 0.00144-1.11 0.00144-2.24 0.0029-1.56 6.81e-4 -3.13-0.00117-4.69-0.00534-2.38-0.00532-4.76-6.86e-5 -7.14 0.00635-1.52-6.61e-4 -3.04-0.00194-4.56-0.00391-1.06 0.00304-1.06 0.00304-2.14 0.00613-4.05-0.0189-7.84-0.368-11.8-1.14-1.26-0.214-2.51-0.428-3.8-0.648-6.99-1.23-13.7-2.5-20.2-5.35-1.11-0.433-2.23-0.866-3.38-1.31-9.03-4.2-14.8-7.85-19.6-16.7-0.328-0.576-0.656-1.15-0.995-1.75-6.09-10.7-10.8-21.7-15.2-33.2-0.79-2.06-0.79-2.06-1.91-4.04-2.38-5.17-0.696-12.1 0.0901-17.5 0.928-7.17 1.25-14.3 1.31-21.5 0.0174-0.963 0.0348-1.93 0.0527-2.92-0.00315-4.52-0.237-8.23-1.95-12.5-1.43-3.6-1.55-4.16-0.418-7.57z" fill="#ffffff"/>
<path transform="translate(1090,1278)" d="m0 0c2.31 0.33 4.62 0.66 7 1-0.99 1.48-0.99 1.48-2 3h-2v3h2v-2c1.96-0.0269 3.92-0.0464 5.88-0.0625 1.64-0.0174 1.64-0.0174 3.3-0.0352 2.82 0.0977 2.82 0.0977 4.82 1.1v-2h-10c-0.33-1.32-0.66-2.64-1-4 4.76-0.291 8.2-0.359 12.6 1.62 4.35 1.77 6.01 0.881 10.4-0.625 10.7-1.69 22.5-2.49 32.7 1.2 3.67 1.3 7.45 2 11.3 2.8 0.33-0.66 0.66-1.32 1-2v5h-2v2c1.13-0.186 2.27-0.371 3.44-0.562 1.76-0.217 1.76-0.217 3.56-0.438l1 1c0.33-0.99 0.66-1.98 1-3h9c0.495 1.98 0.495 1.98 1 4 1.32 0.33 2.64 0.66 4 1-0.33 0.33-0.66 0.66-1 1 3.63 0.66 7.26 1.32 11 2l-1-1c4.66-3.11 9.53-2.37 15-2 3.75 1 3.75 1 6 2-0.33 0.66-0.66 1.32-1 2-1.01-0.143-1.01-0.143-2.05-0.289-0.892-0.111-1.78-0.222-2.7-0.336-0.882-0.116-1.76-0.232-2.67-0.352-2.81-0.0255-4.21 0.528-6.58 1.98 0.641-0.0838 1.28-0.168 1.94-0.254 5.26-0.619 9.81-0.774 15.1 0.254 0.969 0.186 1.94 0.371 2.94 0.562 0.681 0.144 1.36 0.289 2.06 0.438v2c0.99-0.33 1.98-0.66 3-1v2h2v-2c0.99 0.33 1.98 0.66 3 1v5c1.06 0.0606 2.12 0.121 3.21 0.184 1.39 0.0844 2.78 0.169 4.16 0.254 0.699 0.0393 1.4 0.0786 2.12 0.119 5.28 0.33 5.28 0.33 7.51 1.44v-2h10c0.33 0.66 0.66 1.32 1 2 0.722-0.144 1.44-0.289 2.19-0.438l5.62-1.12c0.722-0.144 1.44-0.289 2.19-0.438v2c4.35 0.0906 8.45 0.0922 12.8-0.625 4.75-0.688 9.17 0.33 13.9 1.15 4.31 0.606 8.49 0.585 12.8 0.449 2.38 0.0255 4.29 0.339 6.56 1.03v2h-6v2c-1.09-0.0116-2.17-0.0232-3.29-0.0352-1.45-0.00939-2.89-0.0185-4.34-0.0273-0.713-0.00838-1.43-0.0168-2.16-0.0254-3.28-0.015-6.25 0.0932-9.49 0.654-2.73 0.434-2.73 0.434-4.6-0.0398-2.37-0.589-4.37-0.592-6.81-0.519-12.7 0.26-24.6-0.612-37.1-2.67-3.66-0.564-7.34-0.868-11-1.13-2.43-0.238-4.76-0.697-7.16-1.21-0.73-0.153-1.46-0.307-2.21-0.465-4.65-1.02-9.21-2.22-13.8-3.54-1.77-0.442-3.54-0.879-5.31-1.31-5.38-1.33-10.7-2.77-16.1-4.25-0.761-0.21-1.52-0.42-2.31-0.636-3.21-0.895-6.39-1.82-9.55-2.89-8.5-2.81-17.6-3.72-26.5-4.63-2.31-0.281-2.31-0.281-4.88-0.801-4.92-0.689-9.78-0.672-14.7-0.668-1.6 0.00121-1.6 0.00121-3.23 0.00244-11.1 0.0853-21.8 1.32-32.7 3.31-6.14 1.06-12.5 1.74-18.8 0.875-0.66-0.99-1.32-1.98-2-3h3v-2c0.557 0.351 1.11 0.701 1.69 1.06 2.85 1.16 4.4 0.747 7.31-0.0625 0.33-2.64 0.66-5.28 1-8 1.65 0.33 3.3 0.66 5 1v-2z" fill="#ffffff"/>
<path transform="translate(238,964)" d="m0 0c1.47 1.06 1.47 1.06 3 3 0.448 3.2 0.448 3.2 0.547 7.12 0.0203 0.694 0.0406 1.39 0.0616 2.1 0.0402 1.47 0.0734 2.94 0.1 4.4 0.0412 2.24 0.104 4.47 0.17 6.71 0.302 11.9 0.302 11.9-0.879 16.7 0.99 0.33 1.98 0.66 3 1v2c-0.99 0.495-0.99 0.495-2 1 2.68 2.18 2.68 2.18 5 2 0.168 1.62 0.334 3.25 0.5 4.88 0.0928 0.905 0.186 1.81 0.281 2.74 0.219 2.38 0.219 2.38 0.219 4.38h-2v-5h-2c0.33 1.65 0.66 3.3 1 5h-4c0.351 0.949 0.701 1.9 1.06 2.88 0.938 3.12 0.938 3.12-0.0625 5.12h2c0.495-0.99 0.495-0.99 1-2 0.0425 2 0.0408 4 0 6-0.495 0.495-0.495 0.495-1 1-0.66 0.99-1.32 1.98-2 3 0.99 0.33 1.98 0.66 3 1 0.949 2.29 0.949 2.29 1.69 5.06 0.377 1.38 0.377 1.38 0.762 2.79 0.182 0.71 0.364 1.42 0.551 2.15h4c0.66 1.98 1.32 3.96 2 6-0.99 0.495-0.99 0.495-2 1 0.33 0.681 0.66 1.36 1 2.06 1.17 3.45 1.14 6.32 1 9.94h2c0.784 0.846 1.57 1.69 2.38 2.56 0.866 0.804 1.73 1.61 2.62 2.44 2.28-0.045 2.28-0.045 4-1 1.32 3.62 2 6.1 2 10h-2v-4c-1.37 3.04-1.37 3.04 0.25 6.06 1.58 3.14 1.58 3.14 4.75 4.94v2h2v3h3v2c0.99 0.33 1.98 0.66 3 1 3 3.44 3 3.44 3 6h2c0.33 0.66 0.66 1.32 1 2h13c-1.07-1.3-1.07-1.3-3.56-1.06-1.21 0.0309-1.21 0.0309-2.44 0.0625-0.33-0.99-0.66-1.98-1-3 8.42 0.495 8.42 0.495 17 1-0.99 0.33-1.98 0.66-3 1v3c2.97-0.33 5.94-0.66 9-1 1 2 1 2 1 3 7.54 1.08 7.54 1.08 15 0v2c0.99 0.33 1.98 0.66 3 1v2c-7.35 0.963-14.7 1.11-22.1 1.12-0.941 0.00451-1.88 0.00902-2.85 0.0137-0.886-0.00193-1.77-0.00387-2.68-0.00586-0.799-0.00113-1.6-0.00226-2.42-0.00342-1.98-0.129-1.98-0.129-3.98-1.13-1.13 0.103-2.27 0.206-3.44 0.312-8.68 0.0313-15.4-5.86-21.3-11.6-4.44-4.66-8.45-9.5-12.2-14.7-0.534-0.69-1.07-1.38-1.62-2.09-8.51-11-16-25.3-19.4-38.9-0.264-1-0.529-2.01-0.801-3.04-3.19-14.1-3-28.6-3.2-43-0.011-0.724-0.0219-1.45-0.0332-2.19-0.0659-4.43-0.115-8.86-0.141-13.3-0.0088-1.42-0.0203-2.83-0.0346-4.25-0.0177-1.98-0.02-3.95-0.0216-5.93-0.00411-1.13-0.00822-2.26-0.0125-3.42 0.238-2.85 0.759-4.5 2.24-6.92z" fill="#ffffff"/>
<path transform="translate(419,590)" d="m0 0c1.42 0.115 2.83 0.243 4.25 0.375 0.789 0.0696 1.58 0.139 2.39 0.211 2.45 0.429 4.21 1.2 6.36 2.41v5c4.45-0.495 4.45-0.495 9-1v-2h3v2c1.36-0.247 1.36-0.247 2.75-0.5 8.37-1.15 16-0.967 24 1.76 3.1 1.01 6.02 1.46 9.27 1.74 0.33-0.33 0.66-0.66 1-1 2.4-0.185 4.77-0.308 7.18-0.387 1.08-0.0383 1.08-0.0383 2.19-0.0773 1.53-0.0521 3.06-0.102 4.59-0.148 2.34-0.0743 4.67-0.165 7.01-0.257 1.49-0.0485 2.97-0.0961 4.46-0.143 1.05-0.0436 1.05-0.0436 2.12-0.0881 3.69-0.0951 6.33 0.0517 9.46 2.1v2c0.928-0.309 1.86-0.619 2.81-0.938 2.06-0.688 4.12-1.38 6.19-2.06v-3c4.95 0.495 4.95 0.495 10 1-1.32 0.66-2.64 1.32-4 2-0.33 0.33-0.66 0.66-1 1l2 1v-2c3.04-0.0823 5.07 0.0239 8 1 2.61-0.239 2.61-0.239 5-1 0.33-0.66 0.66-1.32 1-2v5c0.99 0.33 1.98 0.66 3 1v3c0.578-0.474 1.15-0.949 1.75-1.44 4.52-3.14 8.91-2.65 14.2-2.56-0.33 0.66-0.66 1.32-1 2h-7v2c1.99-0.0326 3.97-0.0651 5.96-0.0977 2.04 0.0977 2.04 0.0977 5.04 1.1 0.99-0.33 1.98-0.66 3-1 0.33-1.98 0.66-3.96 1-6l4 1c0.33-0.99 0.66-1.98 1-3 4.72 4.24 4.72 4.24 5.94 7.56 0.0705 2.75-0.487 4.13-1.94 6.44h-2c-0.0272 1.75-0.0465 3.5-0.0625 5.25-0.0174 1.46-0.0174 1.46-0.0352 2.95 0.0857 2.45 0.391 4.46 1.1 6.8-1.32 0.33-2.64 0.66-4 1v-2h-2c-0.227-1.22-0.454-2.43-0.688-3.69-1.11-4.34-2.68-6.55-6.31-9.31-6.16-2.78-11.4-3.48-18.1-3.62-9.29-0.276-9.29-0.276-12.8-0.875-4.6-0.753-9.21-0.748-13.9-0.875-10.3-0.337-20.5-1.13-30.7-2.12-11.2-1.09-22.4-1.9-33.7-2.21-6.01-0.17-11.7-0.648-17.6-1.85-3.84-0.517-7.56-0.448-11.4-0.406-3.36-0.0372-6.62-0.372-9.95-0.812-2.06-0.277-2.06-0.277-4.88-0.219 0.33-0.99 0.66-1.98 1-3-0.66-0.66-1.32-1.32-2-2 5.94-0.495 5.94-0.495 12-1-2.31-0.33-4.62-0.66-7-1-0.33-0.99-0.66-1.98-1-3z" fill="#ffffff"/>
<path transform="translate(1165,746)" d="m0 0h14c-0.33 0.99-0.66 1.98-1 3 1.18 0.103 2.35 0.206 3.56 0.312 4.26 0.517 7.58 1.84 11.4 3.69v2h5c-0.33 0.66-0.66 1.32-1 2 0.812 1.91 1.52 3.52 3 5 0.66-0.33 1.32-0.66 2-1v2c0.949-0.0412 1.9-0.0825 2.88-0.125 3.12 0.125 3.12 0.125 5.12 2.12 1.98 0.714 3.98 1.39 6 2v3h4c1.34 0.649 2.67 1.32 4 2 2.07 0.585 4.16 1.12 6.25 1.62 1.08 0.26 2.16 0.521 3.27 0.789 0.82 0.193 1.64 0.387 2.48 0.586v3c0.724 0.0374 1.45 0.0748 2.2 0.113 5.67 0.385 9.95 0.871 14.8 3.89-0.33-0.33-0.66-0.66-1-1v-2c8.57-1.29 8.57-1.29 12 0-0.33 1.32-0.66 2.64-1 4 1.79-0.0619 1.79-0.0619 3.62-0.125 3.81 0.0135 6.9 0.428 10.4 2.12 0.66 2.08 0.66 2.08 1 4 1.96 0.335 3.92 0.668 5.88 1 1.64 0.278 1.64 0.278 3.3 0.562 2.67 0.489 2.67 0.489 4.82 0.438v2c0.99-0.33 1.98-0.66 3-1 2.35 0.598 4.69 1.26 7 2v3h-3v2c-0.643-0.182-1.29-0.364-1.95-0.551-9.8-2.73-19.5-5.2-29.6-6.45-9.27-1.16-17.8-3.01-26.2-7.03-2.37-1.04-4.72-1.76-7.21-2.47-4.05-1.16-7.78-2.63-11.6-4.41-2.73-1.24-5.5-2.35-8.28-3.47-4.97-2.05-9.6-4.46-14.3-7.09-5.15-2.79-10.5-5.16-15.8-7.54-1.06-0.491-2.12-0.982-3.21-1.49-5.91-2.64-10.3-4.14-16.8-3.51-0.33-0.66-0.66-1.32-1-2 2.59-2.59 4.03-2.37 7.62-2.62 1-0.0748 2.01-0.15 3.04-0.227 1.16-0.0735 1.16-0.0735 2.34-0.148-2.3-1.15-4.08-1.31-6.62-1.56-0.817-0.0838-1.63-0.168-2.48-0.254-0.626-0.0606-1.25-0.121-1.9-0.184v-2z" fill="#ffffff"/>
<path transform="translate(496,1443)" d="m0 0c1.32 0.33 2.64 0.66 4 1-0.0157 0.589-0.0314 1.18-0.0476 1.78-0.0631 2.72-0.102 5.43-0.14 8.15-0.0251 0.926-0.0503 1.85-0.0762 2.81-0.0644 6.12 0.447 11.7 3.26 17.3 2.43 1.99 2.43 1.99 5 3 0.66 0.66 1.32 1.32 2 2 0.763 0.144 1.53 0.289 2.31 0.438 3.1 0.648 5 1.9 7.69 3.56 1.22 0.454 2.43 0.908 3.69 1.38 3.31 1.62 3.31 1.62 4.25 4.12 0.799 2.59 0.799 2.59 2.84 3.49 3.23 1.24 5.73 2.01 9.22 2.01v2c1.79 0.186 1.79 0.186 3.62 0.375 3.67 0.455 6.86 1.45 10.4 2.62 2.8 0.564 5.6 1.06 8.41 1.54 2.23 0.401 4.4 0.886 6.59 1.46 0.743 0.186 1.49 0.371 2.25 0.562 0.577 0.144 1.15 0.289 1.75 0.438-0.495-1.98-0.495-1.98-1-4 3.3 0.66 6.6 1.32 10 2 0.33 0.99 0.66 1.98 1 3 3.88 0.434 3.88 0.434 5.75-1.5 0.413-0.495 0.825-0.99 1.25-1.5 0.687 2.49 1 4.38 1 7h6l1 2h-6v2c-2.06-0.142-4.13-0.289-6.19-0.438-1.72-0.122-1.72-0.122-3.48-0.246-2.87-0.272-5.52-0.713-8.33-1.32-1.22-0.214-2.45-0.428-3.71-0.648-1-0.178-1-0.178-2.03-0.359-1.37-0.243-2.74-0.48-4.12-0.711-4.27-0.767-8.14-1.92-12.2-3.51-1.92-0.746-3.85-1.4-5.81-2.02-18.9-6.15-39.8-15.5-51.3-32.5-1.26-3.46-1.12-6.9-1.08-10.5-0.00773-0.726-0.0155-1.45-0.0234-2.2 0.0184-5.15 0.862-9.6 2.27-14.6z" fill="#ffffff"/>
<path transform="translate(490,764)" d="m0 0c0.66 0.33 1.32 0.66 2 1-0.0116 1.1-0.0232 2.2-0.0352 3.33-0.0534 7.6-0.0396 15 1.01 22.6 0.0234 2.1 0.0234 2.1-1.98 5.1h2l1-2c2.92 1.07 4.78 1.78 7 4 0.99 0.33 1.98 0.66 3 1-0.33 0.66-0.66 1.32-1 2 0.928 0.103 1.86 0.206 2.81 0.312 3.41 0.735 3.87 1.37 6.19 3.69 2.16-0.228 2.16-0.228 4-1v2c2.92 0.167 2.92 0.167 6 0l2-2c1.12 3.75 1.12 3.75 0 6h2v-4h2c3.08 5.42 3.08 5.42 2.69 8.38-0.227 0.536-0.454 1.07-0.688 1.62h3c2.31 6.35 2.2 12.3 2 19-3.58 0-4.44-0.58-7-3-0.941-2.3-0.941-2.3-1.56-4.88-1.59-5.75-2.57-8.95-7.81-12.2-3.66-1.69-7.31-2.54-11.2-3.38-8.73-1.9-14.3-6.16-19.4-13.5-2.47-5.38-2.23-10.6-2.12-16.4 0.00902-0.927 0.018-1.85 0.0273-2.81 0.0234-2.27 0.0562-4.54 0.0977-6.82h2c0.66-2.64 1.32-5.28 2-8z" fill="#ffffff"/>
<path transform="translate(530,874)" d="m0 0c2.69 0.176 5.33 0.618 8 1 0.33 2.97 0.66 5.94 1 9l1-1h2v2h3v-2h2c-0.256 2.34-0.593 4.68-1 7-0.66 0.33-1.32 0.66-2 1 0.193 0.583 0.387 1.17 0.586 1.77 2.12 6.68 3.37 13.3 4.41 20.2 0.182 0.977 0.364 1.95 0.551 2.96 0.471 3.19 0.547 6.2 0.512 9.41-0.00902 1.06-0.018 2.12-0.0273 3.21-0.0116 0.797-0.0232 1.59-0.0352 2.41-2.44-0.375-2.44-0.375-5-1-1.24-2.48-1.2-4.32-1.32-7.1-0.705-13.1-2.2-24-7.68-35.9-0.33-0.99-0.66-1.98-1-3-3.85-2.04-7.72-2.48-12-3-2.33-0.333-4.67-0.667-7-1 0.33-0.66 0.66-1.32 1-2 2.69-0.816 2.69-0.816 6-1.56 3.81-0.593 3.81-0.593 7-2.44z" fill="#ffffff"/>
<path transform="translate(365,562)" d="m0 0h3c0.0709 4.04 0.063 7.63-0.625 11.6-0.417 3.75 0.254 5.91 1.62 9.38v2h2l1 2c1.73 0.247 1.73 0.247 3.5 0.5 1.73 0.247 1.73 0.247 3.5 0.5l1 2c0.33-0.33 0.66-0.66 1-1 1.52-0.0718 3.04-0.0839 4.56-0.0625 0.826 0.00902 1.65 0.018 2.5 0.0273 0.957 0.0174 0.957 0.0174 1.93 0.0352v1c-1.32 0.33-2.64 0.66-4 1 1.34 0.199 1.34 0.199 2.7 0.402 1.76 0.265 1.76 0.265 3.55 0.535 1.74 0.261 1.74 0.261 3.52 0.527 3.23 0.535 3.23 0.535 5.39 1.1 2.09 0.495 3.95 0.536 6.09 0.5 1.24-0.0206 2.48-0.0412 3.75-0.0625 0.66 1.32 1.32 2.64 2 4-8.06 1.19-16 1.67-24 0-0.772-0.134-1.54-0.268-2.34-0.406-9.68-1.75-16.5-4.83-23.1-12.4-2.11-4.3-1.52-6.56-0.562-11.2h1c0.774-4.06 1.1-7.86 1-12z" fill="#ffffff"/>
<path transform="translate(1167,443)" d="m0 0c0.99 0.33 1.98 0.66 3 1v2h-2v6h8c0.33 1.65 0.66 3.3 1 5l4-1c-0.33 3.63-0.66 7.26-1 11h-3c-0.33 1.65-0.66 3.3-1 5-2.31 0.33-4.62 0.66-7 1v-9c-2.31-0.66-4.62-1.32-7-2 0.141-2.13 0.288-4.25 0.438-6.38 0.0812-1.18 0.162-2.37 0.246-3.59 0.316-3.04 0.316-3.04 1.32-5.04h3v-4z" fill="#ffffff"/>
<path transform="translate(682,1155)" d="m0 0h3c0.627 9.37 1.1 18.7 1.12 28.1 0.00677 1.15 0.00677 1.15 0.0137 2.33-0.00943 3.61-0.163 7.11-0.65 10.7-0.588 4.65-0.468 9.13-0.328 13.8-0.164 3.12-0.832 5.24-2.16 8.05-1.49-0.975-1.49-0.975-3-3-0.238-2.88-0.299-5.53-0.215-8.4 0.0128-0.839 0.0256-1.68 0.0388-2.54 0.0445-2.69 0.11-5.37 0.176-8.05 0.0312-1.73 0.061-3.45 0.0894-5.18 0.0747-4.27 0.173-8.54 0.283-12.8 0.0666-2.63 0.126-5.27 0.184-7.9 0.0419-1.68 0.0842-3.37 0.127-5.05 0.0167-0.783 0.0334-1.57 0.0506-2.37 0.151-5.46 0.151-5.46 1.27-7.69z" fill="#ffffff"/>
<path transform="translate(460,521)" d="m0 0h3v2h4v9h-4v7h4v3h-4v3h-4v-8h-4c-0.33-3.96-0.66-7.92-1-12h5c0.33-1.32 0.66-2.64 1-4z" fill="#ffffff"/>
<path transform="translate(1197,423)" d="m0 0 2 1c0.6 2.6 1.05 5.12 1.44 7.75 0.125 0.845 0.25 1.69 0.378 2.56 0.413 2.89 0.801 5.79 1.18 8.69 0.136 1 0.272 2 0.412 3.03 3.06 23.2 3.3 46.6 3.59 70-0.66-0.33-1.32-0.66-2-1-0.0606-1.29-0.121-2.58-0.184-3.91-0.0845-1.72-0.169-3.43-0.254-5.15-0.0393-0.848-0.0786-1.7-0.119-2.57-0.243-4.85-0.75-9.56-1.44-14.4-0.0403-1.83-0.0431-3.67 0-5.5 0.0474-4.3-0.248-8.27-1-12.5h2c-0.144-0.536-0.289-1.07-0.438-1.62-2.82-11.9-3.1-24.2-3.56-36.4h-2v-10z" fill="#ffffff"/>
<path transform="translate(964,208)" d="m0 0c0.675 0.0838 1.35 0.168 2.05 0.254 0.892 0.102 1.78 0.204 2.7 0.309 0.882 0.104 1.76 0.209 2.67 0.316 2.48 0.116 4.21-0.25 6.58-0.879 1.94 0.812 1.94 0.812 4 2 4.32 2.04 8.29 2.52 13 3v3c-4.06 0.0291-8.12 0.0468-12.2 0.0625-1.73 0.0126-1.73 0.0126-3.49 0.0254-1.11 0.00322-2.22 0.00645-3.37 0.00977-1.02 0.00524-2.04 0.0105-3.09 0.0159-2.74-0.109-5.19-0.532-7.86-1.11-1.77-0.0646-3.54-0.0861-5.31-0.0625-1.32 0.0135-1.32 0.0135-2.68 0.0273-0.996 0.0174-0.996 0.0174-2.01 0.0352-0.33-0.66-0.66-1.32-1-2h7c0.33-0.99 0.66-1.98 1-3h2v-2z" fill="#ffffff"/>
<path transform="translate(1147,511)" d="m0 0h6v21h-7c-0.0289-3.31-0.0468-6.62-0.0625-9.94-0.00838-0.946-0.0168-1.89-0.0254-2.87-0.00322-0.899-0.00645-1.8-0.00977-2.72-0.00524-0.833-0.0105-1.67-0.0159-2.52 0.114-1.95 0.114-1.95 1.11-2.95z" fill="#ffffff"/>
<path transform="translate(685,336)" d="m0 0h6c1.02 6.89 0.839 13.1 0 20-2 0.0425-4 0.0408-6 0-1.8-1.8-1.13-4.23-1.14-6.63 0.00387-0.741 0.00773-1.48 0.0117-2.25-0.00387-0.733-0.00773-1.47-0.0117-2.22 0.00588-3.23 0.11-5.82 1.14-8.9z" fill="#ffffff"/>
<path transform="translate(1311,738)" d="m0 0h2c0.891 6.83 1.13 13.5 1.1 20.4-0.00212 1.58-0.00212 1.58-0.00429 3.19-0.00556 3.33-0.0181 6.66-0.0309 9.99-0.00502 2.27-0.00958 4.54-0.0137 6.81-0.011 5.54-0.0277 11.1-0.0488 16.6h-3c-0.198-29.3-0.198-29.3 0.879-39.3 0.138-3.03-0.344-5.69-0.879-8.66-0.0621-1.62-0.0871-3.25-0.0625-4.88 0.00902-0.781 0.018-1.56 0.0273-2.37 0.0116-0.58 0.0232-1.16 0.0352-1.76z" fill="#ffffff"/>
<path transform="translate(716,1051)" d="m0 0c1.58-0.0544 3.17-0.093 4.75-0.125 0.882-0.0232 1.76-0.0464 2.67-0.0703 2.69 0.204 4.28 0.83 6.58 2.2-0.227 0.536-0.454 1.07-0.688 1.62-0.452 3.44 1.02 5.43 2.69 8.38h-2v2l-4 2c-0.33-1.98-0.66-3.96-1-6-3.05-1.01-3.05-1.01-6 0-0.124-0.639-0.247-1.28-0.375-1.94-0.309-1.02-0.309-1.02-0.625-2.06-0.66-0.33-1.32-0.66-2-1 2.97 0.495 2.97 0.495 6 1v-3h-7c0.33-0.99 0.66-1.98 1-3z" fill="#ffffff"/>
<path transform="translate(1205,526)" d="m0 0c4.01 4.01 3.26 10.4 3.5 15.8 0.0406 0.844 0.0812 1.69 0.123 2.56 0.129 2.69 0.254 5.38 0.377 8.07 0.163 3.54 0.33 7.08 0.5 10.6 0.0354 0.806 0.0709 1.61 0.107 2.44 0.204 4.24 0.59 8.32 1.39 12.5-0.99 0.495-0.99 0.495-2 1-1.91-5.83-2.6-11.5-3.12-17.6-0.0864-0.92-0.173-1.84-0.262-2.79-1.08-12-1.08-12-0.0859-15.5 0.737-3.29 0.309-6.53 0.0352-9.86-0.0522-0.697-0.104-1.39-0.158-2.11-0.129-1.71-0.266-3.42-0.404-5.14z" fill="#ffffff"/>
<path transform="translate(1415,1224)" d="m0 0c5.5 5.5 5.33 14.1 5.38 21.4-0.0684 9.63-1.58 18.1-6.38 26.6h-2c2-6 2-6 2.8-7.95 2.25-5.78 2.43-10.9 2.21-17-0.00781-3.02-0.00781-3.02 0.574-5.66 0.48-2.7 0.124-3.78-1.02-6.23-1.65-3.94-1.83-6.89-1.56-11.1z" fill="#ffffff"/>
<path transform="translate(1165,1014)" d="m0 0h12v6h-6v3h-6v-9z" fill="#ffffff"/>
<path transform="translate(589,1020)" d="m0 0h13c0.33 1.65 0.66 3.3 1 5-2.67 1.66-5 3-8 4-0.33-0.99-0.66-1.98-1-3-0.99-0.33-1.98-0.66-3-1-0.66-1.65-1.32-3.3-2-5z" fill="#ffffff"/>
<path transform="translate(331,984)" d="m0 0c0.33 1.65 0.66 3.3 1 5-6.27-0.33-12.5-0.66-19-1v-3c5.97-1.33 11.9-1.09 18-1z" fill="#ffffff"/>
<path transform="translate(855,1365)" d="m0 0v2h2c0.33 0.99 0.66 1.98 1 3 0.66-0.33 1.32-0.66 2-1 0.33 1.32 0.66 2.64 1 4-1.98 0.99-3.96 1.98-6 3-0.99-0.66-1.98-1.32-3-2-2.15 0.308-2.15 0.308-4 1v-3c2.31-0.66 4.62-1.32 7-2h-6v-3c3.75-2 3.75-2 6-2z" fill="#ffffff"/>
<path transform="translate(1030,1291)" d="m0 0c0.33 0.99 0.66 1.98 1 3h3v-2c-0.66-0.33-1.32-0.66-2-1h7c0.33 0.66 0.66 1.32 1 2-1.32 0.33-2.64 0.66-4 1 0.66 0.33 1.32 0.66 2 1 0.625 2.06 0.625 2.06 1 4-2.97 1.65-5.66 2.44-9 3-0.194-1.65-0.38-3.29-0.562-4.94-0.104-0.917-0.209-1.83-0.316-2.78-0.04-0.754-0.0799-1.51-0.121-2.29l1-1z" fill="#ffffff"/>
<path transform="translate(1209,1042)" d="m0 0c0.33 0.99 0.66 1.98 1 3 2.02 0.733 2.02 0.733 4 1h-6v8h-4c-0.0258-0.771-0.0516-1.54-0.0781-2.34-0.0567-1-0.113-2.01-0.172-3.04-0.0464-0.998-0.0928-2-0.141-3.02-0.331-2.75-0.331-2.75-2.66-3.95-0.645-0.214-1.29-0.428-1.95-0.648 4.01-1.15 6.32-1.04 10 1z" fill="#ffffff"/>
<path transform="translate(1161,578)" d="m0 0h6c1.61 3.21 1.06 6.44 1 10h-7v-10z" fill="#ffffff"/>
<path transform="translate(551,484)" d="m0 0h10v6c-3.3 0.33-6.6 0.66-10 1v-7z" fill="#ffffff"/>
<path transform="translate(697,1028)" d="m0 0h1v5h12v3c-2.06 0.223-4.12 0.428-6.19 0.625-1.15 0.116-2.3 0.232-3.48 0.352-3.37 0.0237-5.34-0.502-8.33-1.98 0.959-0.34 0.959-0.34 1.94-0.688 2.33-1.17 2.33-1.17 2.81-3.94 0.0825-0.784 0.165-1.57 0.25-2.38z" fill="#ffffff"/>
<path transform="translate(633,1502)" d="m0 0c3.37 0.547 5.08 1.05 8 3 0.33-0.33 0.66-0.66 1-1 2.02-0.0724 4.04-0.0838 6.06-0.0625 1.1 0.00902 2.21 0.018 3.35 0.0273 0.855 0.0116 1.71 0.0232 2.59 0.0352-3.64 2.43-5.71 2.16-10 2v3h-14c1.32-0.66 2.64-1.32 4-2 0.66-0.66 1.32-1.32 2-2v-2c-0.99-0.33-1.98-0.66-3-1z" fill="#ffffff"/>
<path transform="translate(632 987)" d="m0 0c1.45 0.0309 1.45 0.0309 2.94 0.0625v9h-7c-0.0977-6.15-0.0977-6.15 0-8 1-1 1-1 4.06-1.06z" fill="#ffffff"/>
<path transform="translate(1175,938)" d="m0 0h2c0.671 2.44 1.34 4.87 2 7.31 0.191 0.69 0.382 1.38 0.578 2.09 0.799 2.95 1.42 5.52 1.42 8.6h2v2c-1.94-0.812-1.94-0.812-4-2-0.33-0.99-0.66-1.98-1-3h-4c-0.33-0.99-0.66-1.98-1-3 0.66-0.66 1.32-1.32 2-2 0.66 0.33 1.32 0.66 2 1-0.33-1.07-0.66-2.14-1-3.25-1-3.75-1-3.75-1-7.75z" fill="#ffffff"/>
<path transform="translate(346,951)" d="m0 0c3.88 1.61 6.52 4.15 9.56 7 2.76 2.57 5.3 4.91 8.44 7-1.72 0.699-1.72 0.699-4 1-2.22-1.29-2.22-1.29-4.5-3.19-0.753-0.612-1.51-1.22-2.28-1.86-6.63-5.85-6.63-5.85-7.22-9.96z" fill="#ffffff"/>
<path transform="translate(707,306)" d="m0 0c1.32 0.33 2.64 0.66 4 1 0.196 1.6 0.381 3.21 0.562 4.81 0.104 0.893 0.209 1.79 0.316 2.71 0.121 2.48 0.121 2.48-0.879 5.48-1.65-0.33-3.3-0.66-5-1-1.27-3.81-0.289-5.28 1-9v-4z" fill="#ffffff"/>
<path transform="translate(1156,976)" d="m0 0h11v4h-5v2h-6v-6z" fill="#ffffff"/>
<path transform="translate(577,587)" d="m0 0h4v3c1.32 0.33 2.64 0.66 4 1v9c-1.32 0.33-2.64 0.66-4 1 0.66-2.64 1.32-5.28 2-8-1.14 0.278-1.14 0.278-2.31 0.562-2.69 0.438-2.69 0.438-5.69-0.562v-2h2v-4z" fill="#ffffff"/>
<path transform="translate(880,225)" d="m0 0c1.95 1.18 1.95 1.18 4 3 0.609 2.48 0.609 2.48 0.75 5.19 0.0567 0.901 0.113 1.8 0.172 2.73 0.0258 0.687 0.0516 1.37 0.0781 2.08-0.99 0.33-1.98 0.66-3 1-1.85-2.77-2.52-4.4-3.25-7.56-0.191-0.785-0.382-1.57-0.578-2.38-0.0567-0.679-0.113-1.36-0.172-2.06 0.66-0.66 1.32-1.32 2-2z" fill="#ffffff"/>
<path transform="translate(1243,1048)" d="m0 0h2c2.56 7.57 3.95 15.1 5 23-1.94-0.75-1.94-0.75-4-2-0.869-2.66-1.22-5.34-1.54-8.11-0.087-0.754-0.174-1.51-0.264-2.29-0.087-0.777-0.174-1.55-0.264-2.36-0.0909-0.793-0.182-1.59-0.275-2.4-0.223-1.95-0.443-3.9-0.662-5.85z" fill="#ffffff"/>
<path transform="translate(508,722)" d="m0 0c1.32 0.66 2.64 1.32 4 2-2.46 4.74-4.43 8-9 11h-2c1.41-5.26 3.75-8.72 7-13z" fill="#ffffff"/>
<path transform="translate(1188,996)" d="m0 0h8v5h2v5h-5v-8c-1.65-0.33-3.3-0.66-5-1v-1z" fill="#ffffff"/>
<path transform="translate(584,907)" d="m0 0h6v8h-6v-8z" fill="#ffffff"/>
<path transform="translate(1174,728)" d="m0 0c3.3 0.66 6.6 1.32 10 2-1.65 1.65-3.3 3.3-5 5-0.99-0.33-1.98-0.66-3-1v7c-0.99-0.33-1.98-0.66-3-1 0-3.41 0.509-6.63 1-10v-2z" fill="#ffffff"/>
<path transform="translate(461,481)" d="m0 0c1.32 0.66 2.64 1.32 4 2-3.97 4.16-7.44 6.36-13 8 2.07-5.07 4.27-7.27 9-10z" fill="#ffffff"/>
<path transform="translate(1386,1244)" d="m0 0c0.66 0.33 1.32 0.66 2 1-0.33 1.32-0.66 2.64-1 4h3c0.33-1.65 0.66-3.3 1-5h2c-0.33 2.31-0.66 4.62-1 7-1.26 0.186-2.52 0.371-3.81 0.562-1.06 0.157-1.06 0.157-2.14 0.316-2.04 0.121-2.04 0.121-5.04-0.879 0.33-0.66 0.66-1.32 1-2h3c0.33-1.65 0.66-3.3 1-5z" fill="#ffffff"/>
<path transform="translate(1222,1087)" d="m0 0c1.65 0.33 3.3 0.66 5 1v6c-3.29 0.8-4.71 1.1-8 0v-3c0.66-0.33 1.32-0.66 2-1 0.33-0.99 0.66-1.98 1-3z" fill="#ffffff"/>
<path transform="translate(1224,759)" d="m0 0h4c0.0619 0.928 0.0619 0.928 0.125 1.88 0.289 0.701 0.578 1.4 0.875 2.12 3 1.3 3 1.3 6 2v1c-1.44 0.0271-2.87 0.0465-4.31 0.0625-1.2 0.0174-1.2 0.0174-2.43 0.0352-2.26-0.0977-2.26-0.0977-5.26-1.1 0.33-1.98 0.66-3.96 1-6z" fill="#ffffff"/>
<path transform="translate(1156,984)" d="m0 0h7v6h-7v-6z" fill="#ffffff"/>
<path transform="translate(725,322)" d="m0 0h6v7h-6v-7z" fill="#ffffff"/>
<path transform="translate(1389,1252)" d="m0 0c2.5 1.19 2.5 1.19 5 3 0.312 2.69 0.312 2.69 0 5-0.99 0.495-0.99 0.495-2 1-0.33-0.66-0.66-1.32-1-2-0.66 0.66-1.32 1.32-2 2-2.12-0.375-2.12-0.375-4-1 1.32-0.66 2.64-1.32 4-2v-6z" fill="#ffffff"/>
<path transform="translate(1174,542)" d="m0 0h2c0.195 1.79 0.381 3.58 0.562 5.38 0.104 0.998 0.209 2 0.316 3.02 0.121 2.6 0.121 2.6-0.879 4.6h-3c-0.0269-1.98-0.0463-3.96-0.0625-5.94-0.0116-1.1-0.0232-2.2-0.0352-3.34 0.0977-2.72 0.0977-2.72 1.1-3.72z" fill="#ffffff"/>
<path transform="translate(1158,1257)" d="m0 0c1.16 3.48 0.708 5.46 0 9-0.33-0.99-0.66-1.98-1-3h-4c-0.66-1.65-1.32-3.3-2-5 2.46-1.23 4.28-1.07 7-1z" fill="#ffffff"/>
<path transform="translate(309,985)" d="m0 0h4v3h17v1c-2.75 0.222-5.5 0.428-8.25 0.625-0.777 0.0645-1.55 0.129-2.36 0.195-7.12 0.487-7.12 0.487-10.4-1.82v-3z" fill="#ffffff"/>
<path transform="translate(1063,834)" d="m0 0h6v6h-6v-6z" fill="#ffffff"/>
<path transform="translate(1171,611)" d="m0 0h6v6h-6v-6z" fill="#ffffff"/>
<path transform="translate(973,287)" d="m0 0h6v6h-6v-6z" fill="#ffffff"/>
<path transform="translate(807,286)" d="m0 0h6v6h-6v-6z" fill="#ffffff"/>
<path transform="translate(1276,1103)" d="m0 0c4.23 1.31 8.07 2.94 12 5v2c-4.03-0.553-8.02-1.16-12-2 0.33-0.99 0.66-1.98 1-3-0.33-0.66-0.66-1.32-1-2z" fill="#ffffff"/>
<path transform="translate(1094,274)" d="m0 0c1.32 0.423 2.63 0.864 3.94 1.31 0.731 0.244 1.46 0.487 2.21 0.738 1.85 0.949 1.85 0.949 2.85 3.95-1.98 0.66-3.96 1.32-6 2-3-4.62-3-4.62-3-8z" fill="#ffffff"/>
<path transform="translate(907,271)" d="m0 0c2.48 0.99 2.48 0.99 5 2v-2c0.99 0.33 1.98 0.66 3 1l-2 1v4h-6v-6z" fill="#ffffff"/>
<path transform="translate(967 1312)" d="m0 0c1.5 0.0135 1.5 0.0135 3.04 0.0273 0.771 0.0116 1.54 0.0232 2.34 0.0352-0.33 0.66-0.66 1.32-1 2h-5c-0.66 1.32-1.32 2.64-2 4v-3c-1.65 0.33-3.3 0.66-5 1v-3c2.64-1.32 4.68-1.1 7.62-1.06z" fill="#ffffff"/>
<path transform="translate(1125 1275)" d="m0 0c0.866 0.392 1.73 0.784 2.62 1.19v1c-1.07 0.144-2.14 0.289-3.25 0.438-2.68 0.402-5.15 0.868-7.75 1.56-1.67 0.341-3.33 0.676-5 1 0.33-1.32 0.66-2.64 1-4 0.99 0.33 1.98 0.66 3 1 0.928-0.516 1.86-1.03 2.81-1.56 3.19-1.44 3.19-1.44 6.56-0.625z" fill="#ffffff"/>
<path transform="translate(547,854)" d="m0 0 4 1c0.33 2.31 0.66 4.62 1 7-2.97-0.495-2.97-0.495-6-1 0.33-2.31 0.66-4.62 1-7z" fill="#ffffff"/>
<path transform="translate(632,1046)" d="m0 0c4.29 0.33 8.58 0.66 13 1-0.99 0.33-1.98 0.66-3 1-0.33 0.99-0.66 1.98-1 3h-2c-0.33-0.66-0.66-1.32-1-2-0.99 0.66-1.98 1.32-3 2-0.99-1.65-1.98-3.3-3-5z" fill="#ffffff"/>
<path transform="translate(1094,877)" d="m0 0h9v2h-3v2h-6v-4z" fill="#ffffff"/>
<path transform="translate(1199,1023)" d="m0 0c2 1.25 2 1.25 4 3v4h-5c-0.0425-2-0.0408-4 0-6 0.33-0.33 0.66-0.66 1-1z" fill="#ffffff"/>
<path transform="translate(1072,1285)" d="m0 0v3c-3.42 1.14-6.09 1.1-9.69 1.06-1.77-0.0135-1.77-0.0135-3.57-0.0273-0.904-0.0116-1.81-0.0232-2.74-0.0352 0.33-0.66 0.66-1.32 1-2 1.22 0.0412 2.43 0.0825 3.69 0.125 4.12 0.0146 7.42-2.12 11.3-2.12z" fill="#ffffff"/>
<path transform="translate(1339,1127)" d="m0 0c3.91 1.27 5.79 2.51 8 6-2.25 0.312-2.25 0.312-5 0-2.31-2.5-2.31-2.5-4-5l1-1z" fill="#ffffff"/>
<path transform="translate(259,1019)" d="m0 0c0.66 0.33 1.32 0.66 2 1 0.289 2.02 0.573 4.05 0.754 6.09 0.15 1.99 0.15 1.99 1.25 3.91-0.66 0.66-1.32 1.32-2 2-2.4-4.21-3.45-7.14-3-12 0.33-0.33 0.66-0.66 1-1z" fill="#ffffff"/>
<path transform="translate(758,1595)" d="m0 0c1.98 0.495 1.98 0.495 4 1v4h-5c0.33-1.65 0.66-3.3 1-5z" fill="#ffffff"/>
<path transform="translate(654,1056)" d="m0 0h5v1h-5v-1z" fill="#ffffff"/>
<path transform="translate(294,1113)" d="m0 0 4 1z" fill="#ffffff"/>
<path transform="translate(695,1054)" d="m0 0 4 1z" fill="#ffffff"/>
<path transform="translate(1158,1289)" d="m0 0 2 1z" fill="#ffffff"/>
<path transform="translate(614,1056)" d="m0 0 2 1z" fill="#ffffff"/>
<path transform="translate(423,600)" d="m0 0 2 1z" fill="#ffffff"/>
<path transform="translate(960,215)" d="m0 0 2 1z" fill="#ffffff"/>
</svg>